<mxfile host="app.diagrams.net" modified="2023-06-07T17:09:55.764Z" agent="Mozilla/5.0 (X11; Linux x86_64) AppleWebKit/537.36 (KHTML, like Gecko) Chrome/104.0.5112.124 YaBrowser/22.9.3.894 Yowser/2.5 Safari/537.36" etag="KzdrNug0VjT_rz9LY-Od" version="21.3.7" type="device" pages="7">
  <diagram name="A0" id="yFXzycM-z0YioWYdbV4p">
    <mxGraphModel dx="850" dy="477" grid="1" gridSize="10" guides="1" tooltips="1" connect="1" arrows="1" fold="1" page="1" pageScale="1" pageWidth="827" pageHeight="1169" math="0" shadow="0">
      <root>
        <mxCell id="0" />
        <mxCell id="1" parent="0" />
        <mxCell id="1Km1Da-YcfNlDDT_Z9R4-1" value="Метод построения поисковых индексов" style="shape=stencil(tVTRboMwDPyavFYh2T5gYtt/pKlXotIkcrJ1/fuaGKQiBq0mQEjgu3B3Bhyh69SYCEJJb84g9LtQKmKwkBLdEdww9iK5vHBZDbVJEWxm8MegM/sWmEkZwwku7pB7CecbQJc7Vn8I+UZrulPXNnhPIi74NGLueBIzztOz8pfFevvrqIqkf4YM2IdkVKjP52V3r9sIVxvlHcsO6VfPu57wOHG11YdbTbj6v6yuCZn7uXW9N/Z0xPDtD3+G+XJta0MbkEq+Fi+htOyP5Wai6QZvQgw0dmO7PE4PRn/OmPCJd0FnGqZWA8KDN8G7yYLr7IJiPXEoKG99BbgB);whiteSpace=wrap;html=1;fontFamily=Times New Roman;fontSize=18;spacingBottom=4;points=[[0,0,0,0,0],[0,0.25,0,0,0],[0,0.5,0,0,0],[0,0.75,0,0,0],[0,1,0,0,0],[0.25,0,0,0,0],[0.25,1,0,0,0],[0.5,0,0,0,0],[0.5,1,0,0,0],[0.75,0,0,0,0],[0.75,1,0,0,0],[1,0,0,0,0],[1,0.25,0,0,0],[1,0.5,0,0,0],[1,0.75,0,0,0],[1,1,0,0,0]];" parent="1" vertex="1">
          <mxGeometry x="280" y="160" width="160" height="80" as="geometry" />
        </mxCell>
        <mxCell id="1Km1Da-YcfNlDDT_Z9R4-5" value="" style="endArrow=classic;html=1;rounded=0;exitX=1;exitY=0.5;exitDx=0;exitDy=0;fontFamily=Times New Roman;fontSize=18;" parent="1" source="1Km1Da-YcfNlDDT_Z9R4-1" edge="1">
          <mxGeometry width="50" height="50" relative="1" as="geometry">
            <mxPoint x="600" y="270" as="sourcePoint" />
            <mxPoint x="600" y="200" as="targetPoint" />
          </mxGeometry>
        </mxCell>
        <mxCell id="1Km1Da-YcfNlDDT_Z9R4-6" value="&lt;font style=&quot;font-size: 18px;&quot;&gt;Индекс&lt;/font&gt;" style="edgeLabel;html=1;align=center;verticalAlign=middle;resizable=0;points=[];labelBackgroundColor=none;fontFamily=Times New Roman;fontSize=18;" parent="1Km1Da-YcfNlDDT_Z9R4-5" vertex="1" connectable="0">
          <mxGeometry x="0.4225" y="1" relative="1" as="geometry">
            <mxPoint x="-34" y="-19" as="offset" />
          </mxGeometry>
        </mxCell>
        <mxCell id="1Km1Da-YcfNlDDT_Z9R4-8" value="" style="endArrow=classic;html=1;rounded=0;entryX=0.25;entryY=0;entryDx=0;entryDy=0;entryPerimeter=0;fontFamily=Times New Roman;fontSize=18;" parent="1" target="1Km1Da-YcfNlDDT_Z9R4-1" edge="1">
          <mxGeometry width="50" height="50" relative="1" as="geometry">
            <mxPoint x="320" y="60" as="sourcePoint" />
            <mxPoint x="410" y="90" as="targetPoint" />
          </mxGeometry>
        </mxCell>
        <mxCell id="1Km1Da-YcfNlDDT_Z9R4-9" value="Правила&lt;br style=&quot;font-size: 18px;&quot;&gt;предварительной&lt;br style=&quot;font-size: 18px;&quot;&gt;обработки данных" style="edgeLabel;html=1;align=center;verticalAlign=middle;resizable=0;points=[];fontFamily=Times New Roman;fontSize=18;labelBackgroundColor=none;" parent="1Km1Da-YcfNlDDT_Z9R4-8" vertex="1" connectable="0">
          <mxGeometry x="-0.2188" y="-2" relative="1" as="geometry">
            <mxPoint x="-71" y="-7" as="offset" />
          </mxGeometry>
        </mxCell>
        <mxCell id="1Km1Da-YcfNlDDT_Z9R4-10" value="" style="endArrow=classic;html=1;rounded=0;entryX=0.75;entryY=0;entryDx=0;entryDy=0;entryPerimeter=0;fontFamily=Times New Roman;fontSize=18;" parent="1" target="1Km1Da-YcfNlDDT_Z9R4-1" edge="1">
          <mxGeometry width="50" height="50" relative="1" as="geometry">
            <mxPoint x="400" y="60" as="sourcePoint" />
            <mxPoint x="413" y="140" as="targetPoint" />
          </mxGeometry>
        </mxCell>
        <mxCell id="1Km1Da-YcfNlDDT_Z9R4-11" value="Модель&lt;br style=&quot;font-size: 18px;&quot;&gt;нейронной&lt;br style=&quot;font-size: 18px;&quot;&gt;сети" style="edgeLabel;html=1;align=center;verticalAlign=middle;resizable=0;points=[];fontFamily=Times New Roman;fontSize=18;labelBackgroundColor=none;" parent="1Km1Da-YcfNlDDT_Z9R4-10" vertex="1" connectable="0">
          <mxGeometry x="-0.2188" y="-2" relative="1" as="geometry">
            <mxPoint x="46" y="-7" as="offset" />
          </mxGeometry>
        </mxCell>
        <mxCell id="1Km1Da-YcfNlDDT_Z9R4-12" value="" style="endArrow=classic;html=1;rounded=0;entryX=0.5;entryY=1;entryDx=0;entryDy=0;entryPerimeter=0;fontFamily=Times New Roman;fontSize=18;" parent="1" target="1Km1Da-YcfNlDDT_Z9R4-1" edge="1">
          <mxGeometry width="50" height="50" relative="1" as="geometry">
            <mxPoint x="360" y="340" as="sourcePoint" />
            <mxPoint x="359.5" y="250" as="targetPoint" />
          </mxGeometry>
        </mxCell>
        <mxCell id="1Km1Da-YcfNlDDT_Z9R4-13" value="Алгоритм&lt;br style=&quot;font-size: 18px;&quot;&gt;обучения" style="edgeLabel;html=1;align=center;verticalAlign=middle;resizable=0;points=[];fontFamily=Times New Roman;fontSize=18;labelBackgroundColor=none;" parent="1Km1Da-YcfNlDDT_Z9R4-12" vertex="1" connectable="0">
          <mxGeometry x="-0.2188" y="-2" relative="1" as="geometry">
            <mxPoint x="38" y="-8" as="offset" />
          </mxGeometry>
        </mxCell>
        <mxCell id="Wg_VqN-rY91eOFL19u-m-1" style="edgeStyle=orthogonalEdgeStyle;rounded=0;orthogonalLoop=1;jettySize=auto;html=1;entryX=0;entryY=0.25;entryDx=0;entryDy=0;entryPerimeter=0;fontFamily=Times New Roman;fontSize=18;" parent="1" edge="1">
          <mxGeometry relative="1" as="geometry">
            <mxPoint x="120" y="180" as="sourcePoint" />
            <mxPoint x="280" y="180" as="targetPoint" />
            <Array as="points">
              <mxPoint x="160" y="180" />
            </Array>
          </mxGeometry>
        </mxCell>
        <mxCell id="Wg_VqN-rY91eOFL19u-m-2" style="edgeStyle=orthogonalEdgeStyle;rounded=0;orthogonalLoop=1;jettySize=auto;html=1;entryX=0;entryY=0.75;entryDx=0;entryDy=0;entryPerimeter=0;fontFamily=Times New Roman;fontSize=18;" parent="1" edge="1">
          <mxGeometry relative="1" as="geometry">
            <mxPoint x="280" y="220" as="targetPoint" />
            <mxPoint x="120" y="220" as="sourcePoint" />
          </mxGeometry>
        </mxCell>
        <mxCell id="Wg_VqN-rY91eOFL19u-m-3" value="Набор указателей&lt;br style=&quot;font-size: 18px;&quot;&gt;на данные" style="edgeLabel;html=1;align=center;verticalAlign=middle;resizable=0;points=[];labelBackgroundColor=none;fontFamily=Times New Roman;fontSize=18;" parent="Wg_VqN-rY91eOFL19u-m-2" vertex="1" connectable="0">
          <mxGeometry x="0.3311" y="-1" relative="1" as="geometry">
            <mxPoint x="-26" y="19" as="offset" />
          </mxGeometry>
        </mxCell>
        <mxCell id="Wg_VqN-rY91eOFL19u-m-4" value="Набор&lt;br style=&quot;font-size: 18px;&quot;&gt;ключей" style="edgeLabel;html=1;align=center;verticalAlign=middle;resizable=0;points=[];fontFamily=Times New Roman;fontSize=18;labelBackgroundColor=none;" parent="1" vertex="1" connectable="0">
          <mxGeometry x="200" y="160" as="geometry" />
        </mxCell>
        <mxCell id="S6z4ZX-hq6vd59gQzZvr-1" value="&lt;p style=&quot;line-height: 1; font-size: 18px;&quot;&gt;А0&lt;/p&gt;" style="shape=stencil(tVTRboMwDPyavFYh2T5gYtt/pKlXotIkcrJ1/fuaGKQiBq0mQEjgu3B3Bhyh69SYCEJJb84g9LtQKmKwkBLdEdww9iK5vHBZDbVJEWxm8MegM/sWmEkZwwku7pB7CecbQJc7Vn8I+UZrulPXNnhPIi74NGLueBIzztOz8pfFevvrqIqkf4YM2IdkVKjP52V3r9sIVxvlHcsO6VfPu57wOHG11YdbTbj6v6yuCZn7uXW9N/Z0xPDtD3+G+XJta0MbkEq+Fi+htOyP5Wai6QZvQgw0dmO7PE4PRn/OmPCJd0FnGqZWA8KDN8G7yYLr7IJiPXEoKG99BbgB);whiteSpace=wrap;html=1;fontFamily=Times New Roman;fontSize=18;spacingBottom=0;strokeColor=none;" parent="1" vertex="1">
          <mxGeometry x="400" y="220" width="40" height="20" as="geometry" />
        </mxCell>
      </root>
    </mxGraphModel>
  </diagram>
  <diagram id="qmPKGXvoeMTTLFc1y_zM" name="A1">
    <mxGraphModel dx="3660" dy="2759" grid="1" gridSize="10" guides="1" tooltips="1" connect="1" arrows="1" fold="1" page="1" pageScale="1" pageWidth="827" pageHeight="1169" math="0" shadow="0">
      <root>
        <mxCell id="0" />
        <mxCell id="1" parent="0" />
        <mxCell id="VNHkJXpOaLyShzUM_bZz-3" style="edgeStyle=orthogonalEdgeStyle;rounded=0;orthogonalLoop=1;jettySize=auto;html=1;entryX=0;entryY=0.25;entryDx=0;entryDy=0;entryPerimeter=0;fontSize=22;" parent="1" target="YRXjiUU4PBw1ZXabQApX-1" edge="1">
          <mxGeometry relative="1" as="geometry">
            <mxPoint x="-40" y="145" as="sourcePoint" />
            <Array as="points">
              <mxPoint x="-10" y="145" />
              <mxPoint x="-10" y="145" />
            </Array>
          </mxGeometry>
        </mxCell>
        <mxCell id="5cBtA6jXt6czBHdB1zpv-1" style="edgeStyle=orthogonalEdgeStyle;rounded=0;orthogonalLoop=1;jettySize=auto;html=1;exitX=1;exitY=0.25;exitDx=0;exitDy=0;exitPerimeter=0;entryX=0;entryY=0.5;entryDx=0;entryDy=0;entryPerimeter=0;fontSize=22;" parent="1" source="YRXjiUU4PBw1ZXabQApX-1" target="VNHkJXpOaLyShzUM_bZz-1" edge="1">
          <mxGeometry relative="1" as="geometry">
            <Array as="points">
              <mxPoint x="340" y="140" />
              <mxPoint x="380" y="140" />
              <mxPoint x="380" y="270" />
            </Array>
          </mxGeometry>
        </mxCell>
        <mxCell id="5cBtA6jXt6czBHdB1zpv-2" style="edgeStyle=orthogonalEdgeStyle;rounded=0;orthogonalLoop=1;jettySize=auto;html=1;exitX=1;exitY=0.25;exitDx=0;exitDy=0;exitPerimeter=0;entryX=0;entryY=0.5;entryDx=0;entryDy=0;entryPerimeter=0;fontSize=22;" parent="1" source="YRXjiUU4PBw1ZXabQApX-1" target="VNHkJXpOaLyShzUM_bZz-2" edge="1">
          <mxGeometry relative="1" as="geometry">
            <Array as="points">
              <mxPoint x="340" y="140" />
              <mxPoint x="380" y="140" />
              <mxPoint x="380" y="370" />
            </Array>
          </mxGeometry>
        </mxCell>
        <mxCell id="K4uNHn8bxdNuuKv8pfja-1" style="edgeStyle=orthogonalEdgeStyle;rounded=0;orthogonalLoop=1;jettySize=auto;html=1;entryX=0.5;entryY=0;entryDx=0;entryDy=0;entryPerimeter=0;fontSize=22;" parent="1" target="YRXjiUU4PBw1ZXabQApX-1" edge="1">
          <mxGeometry relative="1" as="geometry">
            <mxPoint x="240" y="10" as="sourcePoint" />
            <Array as="points">
              <mxPoint x="240" y="20" />
            </Array>
          </mxGeometry>
        </mxCell>
        <mxCell id="EAxyrQdvT2Hi-i6EKIxG-1" style="edgeStyle=orthogonalEdgeStyle;rounded=0;orthogonalLoop=1;jettySize=auto;html=1;entryX=0;entryY=0.75;entryDx=0;entryDy=0;entryPerimeter=0;fontSize=22;" parent="1" target="YRXjiUU4PBw1ZXabQApX-1" edge="1">
          <mxGeometry relative="1" as="geometry">
            <mxPoint x="-40" y="195" as="sourcePoint" />
            <Array as="points">
              <mxPoint y="195" />
            </Array>
          </mxGeometry>
        </mxCell>
        <mxCell id="EAxyrQdvT2Hi-i6EKIxG-3" value="Набор указателей&lt;br style=&quot;font-size: 22px;&quot;&gt;на данные" style="edgeLabel;html=1;align=center;verticalAlign=middle;resizable=0;points=[];labelBackgroundColor=none;fontFamily=Times New Roman;fontSize=22;" parent="EAxyrQdvT2Hi-i6EKIxG-1" vertex="1" connectable="0">
          <mxGeometry x="0.3311" y="-1" relative="1" as="geometry">
            <mxPoint x="-30" y="26" as="offset" />
          </mxGeometry>
        </mxCell>
        <mxCell id="EAxyrQdvT2Hi-i6EKIxG-4" style="edgeStyle=orthogonalEdgeStyle;rounded=0;orthogonalLoop=1;jettySize=auto;html=1;exitX=1;exitY=0.75;exitDx=0;exitDy=0;exitPerimeter=0;entryX=0;entryY=0.75;entryDx=0;entryDy=0;entryPerimeter=0;fontSize=22;" parent="1" source="YRXjiUU4PBw1ZXabQApX-1" target="VNHkJXpOaLyShzUM_bZz-2" edge="1">
          <mxGeometry relative="1" as="geometry">
            <mxPoint x="250.00000000000023" y="430" as="targetPoint" />
            <Array as="points">
              <mxPoint x="360" y="195" />
              <mxPoint x="360" y="395" />
            </Array>
          </mxGeometry>
        </mxCell>
        <mxCell id="YRXjiUU4PBw1ZXabQApX-1" value="Предварительная обработка входных наборов" style="shape=stencil(tVTRboMwDPyavFYh2T5gYtt/pKlXotIkcrJ1/fuaGKQiBq0mQEjgu3B3Bhyh69SYCEJJb84g9LtQKmKwkBLdEdww9iK5vHBZDbVJEWxm8MegM/sWmEkZwwku7pB7CecbQJc7Vn8I+UZrulPXNnhPIi74NGLueBIzztOz8pfFevvrqIqkf4YM2IdkVKjP52V3r9sIVxvlHcsO6VfPu57wOHG11YdbTbj6v6yuCZn7uXW9N/Z0xPDtD3+G+XJta0MbkEq+Fi+htOyP5Wai6QZvQgw0dmO7PE4PRn/OmPCJd0FnGqZWA8KDN8G7yYLr7IJiPXEoKG99BbgB);whiteSpace=wrap;html=1;fontFamily=Times New Roman;fontSize=22;spacingBottom=4;points=[[0,0,0,0,0],[0,0.25,0,0,0],[0,0.5,0,0,0],[0,0.75,0,0,0],[0,1,0,0,0],[0.25,0,0,0,0],[0.25,1,0,0,0],[0.5,0,0,0,0],[0.5,1,0,0,0],[0.75,0,0,0,0],[0.75,1,0,0,0],[1,0,0,0,0],[1,0.25,0,0,0],[1,0.5,0,0,0],[1,0.75,0,0,0],[1,1,0,0,0]];" parent="1" vertex="1">
          <mxGeometry x="140" y="120" width="200" height="100" as="geometry" />
        </mxCell>
        <mxCell id="5cBtA6jXt6czBHdB1zpv-3" style="edgeStyle=orthogonalEdgeStyle;rounded=0;orthogonalLoop=1;jettySize=auto;html=1;exitX=1;exitY=0.5;exitDx=0;exitDy=0;exitPerimeter=0;entryX=0;entryY=0.25;entryDx=0;entryDy=0;entryPerimeter=0;fontSize=22;" parent="1" source="VNHkJXpOaLyShzUM_bZz-1" target="VNHkJXpOaLyShzUM_bZz-2" edge="1">
          <mxGeometry relative="1" as="geometry">
            <Array as="points">
              <mxPoint x="620" y="270" />
              <mxPoint x="620" y="345" />
            </Array>
          </mxGeometry>
        </mxCell>
        <mxCell id="VNHkJXpOaLyShzUM_bZz-1" value="Получение&lt;br style=&quot;font-size: 22px;&quot;&gt;значений функции распределения" style="shape=stencil(tVTRboMwDPyavFYh2T5gYtt/pKlXotIkcrJ1/fuaGKQiBq0mQEjgu3B3Bhyh69SYCEJJb84g9LtQKmKwkBLdEdww9iK5vHBZDbVJEWxm8MegM/sWmEkZwwku7pB7CecbQJc7Vn8I+UZrulPXNnhPIi74NGLueBIzztOz8pfFevvrqIqkf4YM2IdkVKjP52V3r9sIVxvlHcsO6VfPu57wOHG11YdbTbj6v6yuCZn7uXW9N/Z0xPDtD3+G+XJta0MbkEq+Fi+htOyP5Wai6QZvQgw0dmO7PE4PRn/OmPCJd0FnGqZWA8KDN8G7yYLr7IJiPXEoKG99BbgB);whiteSpace=wrap;html=1;fontFamily=Times New Roman;fontSize=22;spacingBottom=12;points=[[0,0,0,0,0],[0,0.25,0,0,0],[0,0.5,0,0,0],[0,0.75,0,0,0],[0,1,0,0,0],[0.25,0,0,0,0],[0.25,1,0,0,0],[0.5,0,0,0,0],[0.5,1,0,0,0],[0.75,0,0,0,0],[0.75,1,0,0,0],[1,0,0,0,0],[1,0.25,0,0,0],[1,0.5,0,0,0],[1,0.75,0,0,0],[1,1,0,0,0]];" parent="1" vertex="1">
          <mxGeometry x="400" y="220" width="200" height="100" as="geometry" />
        </mxCell>
        <mxCell id="5cBtA6jXt6czBHdB1zpv-4" style="edgeStyle=orthogonalEdgeStyle;rounded=0;orthogonalLoop=1;jettySize=auto;html=1;exitX=1;exitY=0.25;exitDx=0;exitDy=0;exitPerimeter=0;fontSize=22;" parent="1" source="VNHkJXpOaLyShzUM_bZz-2" edge="1">
          <mxGeometry relative="1" as="geometry">
            <mxPoint x="1010" y="345" as="targetPoint" />
            <Array as="points">
              <mxPoint x="950" y="345" />
            </Array>
          </mxGeometry>
        </mxCell>
        <mxCell id="bZO6jNb4el-TY8VpLnMV-1" value="Обученная&lt;br style=&quot;font-size: 22px;&quot;&gt;нейронная сеть" style="edgeLabel;html=1;align=center;verticalAlign=middle;resizable=0;points=[];fontFamily=Times New Roman;fontSize=22;labelBackgroundColor=none;" vertex="1" connectable="0" parent="5cBtA6jXt6czBHdB1zpv-4">
          <mxGeometry x="0.2855" y="-1" relative="1" as="geometry">
            <mxPoint x="-26" y="-26" as="offset" />
          </mxGeometry>
        </mxCell>
        <mxCell id="K4uNHn8bxdNuuKv8pfja-3" style="edgeStyle=orthogonalEdgeStyle;rounded=0;orthogonalLoop=1;jettySize=auto;html=1;entryX=0.5;entryY=0;entryDx=0;entryDy=0;entryPerimeter=0;fontSize=22;" parent="1" target="VNHkJXpOaLyShzUM_bZz-2" edge="1">
          <mxGeometry relative="1" as="geometry">
            <mxPoint x="750" as="sourcePoint" />
            <Array as="points">
              <mxPoint x="750" y="10" />
            </Array>
          </mxGeometry>
        </mxCell>
        <mxCell id="K4uNHn8bxdNuuKv8pfja-4" style="edgeStyle=orthogonalEdgeStyle;rounded=0;orthogonalLoop=1;jettySize=auto;html=1;entryX=0.5;entryY=1;entryDx=0;entryDy=0;entryPerimeter=0;fontSize=22;" parent="1" target="VNHkJXpOaLyShzUM_bZz-2" edge="1">
          <mxGeometry relative="1" as="geometry">
            <mxPoint x="750" y="480" as="sourcePoint" />
            <Array as="points">
              <mxPoint x="750" y="480" />
              <mxPoint x="750" y="420" />
            </Array>
          </mxGeometry>
        </mxCell>
        <mxCell id="bZO6jNb4el-TY8VpLnMV-2" style="edgeStyle=orthogonalEdgeStyle;rounded=0;orthogonalLoop=1;jettySize=auto;html=1;exitX=1;exitY=0.75;exitDx=0;exitDy=0;exitPerimeter=0;fontSize=22;" edge="1" parent="1" source="VNHkJXpOaLyShzUM_bZz-2">
          <mxGeometry relative="1" as="geometry">
            <mxPoint x="1010" y="395" as="targetPoint" />
          </mxGeometry>
        </mxCell>
        <mxCell id="bZO6jNb4el-TY8VpLnMV-3" value="&lt;font style=&quot;font-size: 22px;&quot; face=&quot;Times New Roman&quot;&gt;Ошибка&lt;br style=&quot;font-size: 22px;&quot;&gt;предсказания&lt;/font&gt;" style="edgeLabel;html=1;align=center;verticalAlign=middle;resizable=0;points=[];labelBackgroundColor=none;fontSize=22;" vertex="1" connectable="0" parent="bZO6jNb4el-TY8VpLnMV-2">
          <mxGeometry x="0.3017" y="3" relative="1" as="geometry">
            <mxPoint x="-24" y="28" as="offset" />
          </mxGeometry>
        </mxCell>
        <mxCell id="VNHkJXpOaLyShzUM_bZz-2" value="Обучение нейронной сети" style="shape=stencil(tVTRboMwDPyavFYh2T5gYtt/pKlXotIkcrJ1/fuaGKQiBq0mQEjgu3B3Bhyh69SYCEJJb84g9LtQKmKwkBLdEdww9iK5vHBZDbVJEWxm8MegM/sWmEkZwwku7pB7CecbQJc7Vn8I+UZrulPXNnhPIi74NGLueBIzztOz8pfFevvrqIqkf4YM2IdkVKjP52V3r9sIVxvlHcsO6VfPu57wOHG11YdbTbj6v6yuCZn7uXW9N/Z0xPDtD3+G+XJta0MbkEq+Fi+htOyP5Wai6QZvQgw0dmO7PE4PRn/OmPCJd0FnGqZWA8KDN8G7yYLr7IJiPXEoKG99BbgB);whiteSpace=wrap;html=1;fontFamily=Times New Roman;fontSize=22;spacingBottom=4;points=[[0,0,0,0,0],[0,0.25,0,0,0],[0,0.5,0,0,0],[0,0.75,0,0,0],[0,1,0,0,0],[0.25,0,0,0,0],[0.25,1,0,0,0],[0.5,0,0,0,0],[0.5,1,0,0,0],[0.75,0,0,0,0],[0.75,1,0,0,0],[1,0,0,0,0],[1,0.25,0,0,0],[1,0.5,0,0,0],[1,0.75,0,0,0],[1,1,0,0,0]];" parent="1" vertex="1">
          <mxGeometry x="650" y="320" width="200" height="100" as="geometry" />
        </mxCell>
        <mxCell id="4ERX2aIhN12B0YM6mw1_-1" value="Набор&lt;br&gt;уникальных&lt;br&gt;целочисленных&lt;br style=&quot;font-size: 22px;&quot;&gt;ключей" style="edgeLabel;html=1;align=center;verticalAlign=middle;resizable=0;points=[];fontFamily=Times New Roman;fontSize=22;labelBackgroundColor=none;" parent="1" vertex="1" connectable="0">
          <mxGeometry x="50" y="90" as="geometry" />
        </mxCell>
        <mxCell id="awJWeujHHhdRLdk3-X4l-1" value="Правила&lt;br style=&quot;font-size: 22px;&quot;&gt;предварительной&lt;br style=&quot;font-size: 22px;&quot;&gt;обработки данных" style="edgeLabel;html=1;align=center;verticalAlign=middle;resizable=0;points=[];fontFamily=Times New Roman;fontSize=22;labelBackgroundColor=none;" parent="1" vertex="1" connectable="0">
          <mxGeometry x="330" y="40" as="geometry" />
        </mxCell>
        <mxCell id="trdoh5Rx9WeL1LCI86Cn-1" value="Архитектура&lt;br style=&quot;font-size: 22px;&quot;&gt;нейронной&lt;br style=&quot;font-size: 22px;&quot;&gt;сети" style="edgeLabel;html=1;align=center;verticalAlign=middle;resizable=0;points=[];fontFamily=Times New Roman;fontSize=22;labelBackgroundColor=none;" parent="1" vertex="1" connectable="0">
          <mxGeometry x="810" y="40" as="geometry">
            <mxPoint x="3" as="offset" />
          </mxGeometry>
        </mxCell>
        <mxCell id="lra-ojvp969Ze-Dp2Aty-1" value="Алгоритм&lt;br style=&quot;font-size: 22px;&quot;&gt;обучения" style="edgeLabel;html=1;align=center;verticalAlign=middle;resizable=0;points=[];fontFamily=Times New Roman;fontSize=22;labelBackgroundColor=none;" parent="1" vertex="1" connectable="0">
          <mxGeometry x="700" y="450" as="geometry" />
        </mxCell>
        <mxCell id="D7aJVOPplJiEWnKuDGXk-2" value="Обработанный&lt;br style=&quot;font-size: 22px;&quot;&gt;набор ключей" style="edgeLabel;html=1;align=center;verticalAlign=middle;resizable=0;points=[];fontFamily=Times New Roman;fontSize=22;labelBackgroundColor=none;" parent="1" vertex="1" connectable="0">
          <mxGeometry x="420" y="111" as="geometry">
            <mxPoint x="3" y="2" as="offset" />
          </mxGeometry>
        </mxCell>
        <mxCell id="D7aJVOPplJiEWnKuDGXk-4" value="Значения&lt;br style=&quot;font-size: 22px;&quot;&gt;функции&lt;br style=&quot;font-size: 22px;&quot;&gt;распределения&lt;br style=&quot;font-size: 22px;&quot;&gt;ключей" style="edgeLabel;html=1;align=center;verticalAlign=middle;resizable=0;points=[];fontFamily=Times New Roman;fontSize=22;labelBackgroundColor=none;" parent="1" vertex="1" connectable="0">
          <mxGeometry x="673" y="231" as="geometry" />
        </mxCell>
        <mxCell id="EAxyrQdvT2Hi-i6EKIxG-5" value="Обработанный&lt;br style=&quot;font-size: 22px;&quot;&gt;набор указателей&lt;br style=&quot;font-size: 22px;&quot;&gt;на данные" style="edgeLabel;html=1;align=center;verticalAlign=middle;resizable=0;points=[];fontFamily=Times New Roman;fontSize=22;labelBackgroundColor=none;" parent="1" vertex="1" connectable="0">
          <mxGeometry x="270" y="290" as="geometry">
            <mxPoint x="3" y="2" as="offset" />
          </mxGeometry>
        </mxCell>
        <mxCell id="EAxyrQdvT2Hi-i6EKIxG-8" value="&lt;p style=&quot;line-height: 1; font-size: 22px;&quot;&gt;А1&lt;/p&gt;" style="shape=stencil(tVTRboMwDPyavFYh2T5gYtt/pKlXotIkcrJ1/fuaGKQiBq0mQEjgu3B3Bhyh69SYCEJJb84g9LtQKmKwkBLdEdww9iK5vHBZDbVJEWxm8MegM/sWmEkZwwku7pB7CecbQJc7Vn8I+UZrulPXNnhPIi74NGLueBIzztOz8pfFevvrqIqkf4YM2IdkVKjP52V3r9sIVxvlHcsO6VfPu57wOHG11YdbTbj6v6yuCZn7uXW9N/Z0xPDtD3+G+XJta0MbkEq+Fi+htOyP5Wai6QZvQgw0dmO7PE4PRn/OmPCJd0FnGqZWA8KDN8G7yYLr7IJiPXEoKG99BbgB);whiteSpace=wrap;html=1;fontFamily=Times New Roman;fontSize=22;spacingBottom=0;strokeColor=none;" parent="1" vertex="1">
          <mxGeometry x="300" y="200" width="40" height="20" as="geometry" />
        </mxCell>
        <mxCell id="EAxyrQdvT2Hi-i6EKIxG-9" value="&lt;p style=&quot;line-height: 1; font-size: 22px;&quot;&gt;А2&lt;/p&gt;" style="shape=stencil(tVTRboMwDPyavFYh2T5gYtt/pKlXotIkcrJ1/fuaGKQiBq0mQEjgu3B3Bhyh69SYCEJJb84g9LtQKmKwkBLdEdww9iK5vHBZDbVJEWxm8MegM/sWmEkZwwku7pB7CecbQJc7Vn8I+UZrulPXNnhPIi74NGLueBIzztOz8pfFevvrqIqkf4YM2IdkVKjP52V3r9sIVxvlHcsO6VfPu57wOHG11YdbTbj6v6yuCZn7uXW9N/Z0xPDtD3+G+XJta0MbkEq+Fi+htOyP5Wai6QZvQgw0dmO7PE4PRn/OmPCJd0FnGqZWA8KDN8G7yYLr7IJiPXEoKG99BbgB);whiteSpace=wrap;html=1;fontFamily=Times New Roman;fontSize=22;spacingBottom=0;strokeColor=none;" parent="1" vertex="1">
          <mxGeometry x="560" y="300" width="40" height="20" as="geometry" />
        </mxCell>
        <mxCell id="EAxyrQdvT2Hi-i6EKIxG-10" value="&lt;p style=&quot;line-height: 1; font-size: 22px;&quot;&gt;А3&lt;/p&gt;" style="shape=stencil(tVTRboMwDPyavFYh2T5gYtt/pKlXotIkcrJ1/fuaGKQiBq0mQEjgu3B3Bhyh69SYCEJJb84g9LtQKmKwkBLdEdww9iK5vHBZDbVJEWxm8MegM/sWmEkZwwku7pB7CecbQJc7Vn8I+UZrulPXNnhPIi74NGLueBIzztOz8pfFevvrqIqkf4YM2IdkVKjP52V3r9sIVxvlHcsO6VfPu57wOHG11YdbTbj6v6yuCZn7uXW9N/Z0xPDtD3+G+XJta0MbkEq+Fi+htOyP5Wai6QZvQgw0dmO7PE4PRn/OmPCJd0FnGqZWA8KDN8G7yYLr7IJiPXEoKG99BbgB);whiteSpace=wrap;html=1;fontFamily=Times New Roman;fontSize=22;spacingBottom=0;strokeColor=none;" parent="1" vertex="1">
          <mxGeometry x="810" y="400" width="40" height="20" as="geometry" />
        </mxCell>
        <mxCell id="la_cnSknL3pdfe2nIBnf-3" style="edgeStyle=orthogonalEdgeStyle;rounded=0;orthogonalLoop=1;jettySize=auto;html=1;entryX=0.5;entryY=0;entryDx=0;entryDy=0;entryPerimeter=0;fontSize=22;" parent="1" target="VNHkJXpOaLyShzUM_bZz-1" edge="1">
          <mxGeometry relative="1" as="geometry">
            <mxPoint x="240" as="sourcePoint" />
            <Array as="points">
              <mxPoint x="240" y="80" />
              <mxPoint x="500" y="80" />
            </Array>
            <mxPoint x="465" y="220" as="targetPoint" />
          </mxGeometry>
        </mxCell>
      </root>
    </mxGraphModel>
  </diagram>
  <diagram id="KIAT2g9ba4cE6xs8CVbG" name="search-A0">
    <mxGraphModel dx="844" dy="477" grid="1" gridSize="10" guides="1" tooltips="1" connect="1" arrows="1" fold="1" page="1" pageScale="1" pageWidth="827" pageHeight="1169" math="0" shadow="0">
      <root>
        <mxCell id="0" />
        <mxCell id="1" parent="0" />
        <mxCell id="Y8ziVUJmuxMVsW9_GW9U-1" value="Поиск с использованием индекса, построенного на основе глубокой нейронной сети" style="shape=stencil(tVTRboMwDPyavFYh2T5gYtt/pKlXotIkcrJ1/fuaGKQiBq0mQEjgu3B3Bhyh69SYCEJJb84g9LtQKmKwkBLdEdww9iK5vHBZDbVJEWxm8MegM/sWmEkZwwku7pB7CecbQJc7Vn8I+UZrulPXNnhPIi74NGLueBIzztOz8pfFevvrqIqkf4YM2IdkVKjP52V3r9sIVxvlHcsO6VfPu57wOHG11YdbTbj6v6yuCZn7uXW9N/Z0xPDtD3+G+XJta0MbkEq+Fi+htOyP5Wai6QZvQgw0dmO7PE4PRn/OmPCJd0FnGqZWA8KDN8G7yYLr7IJiPXEoKG99BbgB);whiteSpace=wrap;html=1;fontFamily=Times New Roman;fontSize=18;spacingBottom=4;points=[[0,0,0,0,0],[0,0.25,0,0,0],[0,0.5,0,0,0],[0,0.75,0,0,0],[0,1,0,0,0],[0.25,0,0,0,0],[0.25,1,0,0,0],[0.5,0,0,0,0],[0.5,1,0,0,0],[0.75,0,0,0,0],[0.75,1,0,0,0],[1,0,0,0,0],[1,0.25,0,0,0],[1,0.5,0,0,0],[1,0.75,0,0,0],[1,1,0,0,0]];" parent="1" vertex="1">
          <mxGeometry x="280" y="160" width="200" height="100" as="geometry" />
        </mxCell>
        <mxCell id="Y8ziVUJmuxMVsW9_GW9U-2" value="" style="endArrow=classic;html=1;rounded=0;entryX=0;entryY=0.5;entryDx=0;entryDy=0;fontFamily=Times New Roman;fontSize=18;" parent="1" target="Y8ziVUJmuxMVsW9_GW9U-1" edge="1">
          <mxGeometry width="50" height="50" relative="1" as="geometry">
            <mxPoint x="160" y="210" as="sourcePoint" />
            <mxPoint x="200" y="170" as="targetPoint" />
          </mxGeometry>
        </mxCell>
        <mxCell id="Y8ziVUJmuxMVsW9_GW9U-3" value="Ключ/&lt;br style=&quot;font-size: 18px;&quot;&gt;диапазон" style="edgeLabel;html=1;align=center;verticalAlign=middle;resizable=0;points=[];fontFamily=Times New Roman;fontSize=18;labelBackgroundColor=none;" parent="Y8ziVUJmuxMVsW9_GW9U-2" vertex="1" connectable="0">
          <mxGeometry x="0.4043" y="-1" relative="1" as="geometry">
            <mxPoint x="-24" y="-31" as="offset" />
          </mxGeometry>
        </mxCell>
        <mxCell id="Y8ziVUJmuxMVsW9_GW9U-4" value="" style="endArrow=classic;html=1;rounded=0;exitX=1;exitY=0.5;exitDx=0;exitDy=0;fontSize=18;" parent="1" source="Y8ziVUJmuxMVsW9_GW9U-1" edge="1">
          <mxGeometry width="50" height="50" relative="1" as="geometry">
            <mxPoint x="600" y="270" as="sourcePoint" />
            <mxPoint x="600" y="210" as="targetPoint" />
          </mxGeometry>
        </mxCell>
        <mxCell id="Y8ziVUJmuxMVsW9_GW9U-5" value="&lt;font face=&quot;Times New Roman&quot; style=&quot;font-size: 18px;&quot;&gt;&lt;span style=&quot;font-size: 18px;&quot;&gt;Указатель на&lt;br style=&quot;font-size: 18px;&quot;&gt;запись&lt;br style=&quot;font-size: 18px;&quot;&gt;&lt;/span&gt;&lt;/font&gt;" style="edgeLabel;html=1;align=center;verticalAlign=middle;resizable=0;points=[];labelBackgroundColor=none;fontSize=18;" parent="Y8ziVUJmuxMVsW9_GW9U-4" vertex="1" connectable="0">
          <mxGeometry x="0.4225" y="1" relative="1" as="geometry">
            <mxPoint x="-25" y="-29" as="offset" />
          </mxGeometry>
        </mxCell>
        <mxCell id="Y8ziVUJmuxMVsW9_GW9U-6" value="" style="endArrow=classic;html=1;rounded=0;entryX=0.5;entryY=0;entryDx=0;entryDy=0;entryPerimeter=0;fontSize=18;" parent="1" target="Y8ziVUJmuxMVsW9_GW9U-1" edge="1">
          <mxGeometry width="50" height="50" relative="1" as="geometry">
            <mxPoint x="380" y="80" as="sourcePoint" />
            <mxPoint x="410" y="90" as="targetPoint" />
          </mxGeometry>
        </mxCell>
        <mxCell id="Y8ziVUJmuxMVsW9_GW9U-7" value="Правила&lt;br style=&quot;font-size: 18px;&quot;&gt;нормализации" style="edgeLabel;html=1;align=center;verticalAlign=middle;resizable=0;points=[];fontFamily=Times New Roman;fontSize=18;labelBackgroundColor=none;" parent="Y8ziVUJmuxMVsW9_GW9U-6" vertex="1" connectable="0">
          <mxGeometry x="-0.2188" y="-2" relative="1" as="geometry">
            <mxPoint x="-58" y="9" as="offset" />
          </mxGeometry>
        </mxCell>
        <mxCell id="Y8ziVUJmuxMVsW9_GW9U-10" value="" style="endArrow=classic;html=1;rounded=0;entryX=0.5;entryY=1;entryDx=0;entryDy=0;entryPerimeter=0;fontSize=18;" parent="1" target="Y8ziVUJmuxMVsW9_GW9U-1" edge="1">
          <mxGeometry width="50" height="50" relative="1" as="geometry">
            <mxPoint x="380" y="340" as="sourcePoint" />
            <mxPoint x="359.5" y="250" as="targetPoint" />
          </mxGeometry>
        </mxCell>
        <mxCell id="Y8ziVUJmuxMVsW9_GW9U-11" value="Построенный&lt;br style=&quot;font-size: 18px;&quot;&gt;индекс" style="edgeLabel;html=1;align=center;verticalAlign=middle;resizable=0;points=[];fontFamily=Times New Roman;fontSize=18;labelBackgroundColor=none;" parent="Y8ziVUJmuxMVsW9_GW9U-10" vertex="1" connectable="0">
          <mxGeometry x="-0.2188" y="-2" relative="1" as="geometry">
            <mxPoint x="58" y="-9" as="offset" />
          </mxGeometry>
        </mxCell>
        <mxCell id="zL9s7jGf4avZwzsd2Plg-1" value="&lt;p style=&quot;line-height: 1; font-size: 18px;&quot;&gt;А0&lt;/p&gt;" style="shape=stencil(tVTRboMwDPyavFYh2T5gYtt/pKlXotIkcrJ1/fuaGKQiBq0mQEjgu3B3Bhyh69SYCEJJb84g9LtQKmKwkBLdEdww9iK5vHBZDbVJEWxm8MegM/sWmEkZwwku7pB7CecbQJc7Vn8I+UZrulPXNnhPIi74NGLueBIzztOz8pfFevvrqIqkf4YM2IdkVKjP52V3r9sIVxvlHcsO6VfPu57wOHG11YdbTbj6v6yuCZn7uXW9N/Z0xPDtD3+G+XJta0MbkEq+Fi+htOyP5Wai6QZvQgw0dmO7PE4PRn/OmPCJd0FnGqZWA8KDN8G7yYLr7IJiPXEoKG99BbgB);whiteSpace=wrap;html=1;fontFamily=Times New Roman;fontSize=18;spacingBottom=0;strokeColor=none;" parent="1" vertex="1">
          <mxGeometry x="440" y="240" width="40" height="20" as="geometry" />
        </mxCell>
      </root>
    </mxGraphModel>
  </diagram>
  <diagram id="EQnuQT8CwnLf2qdd-_qS" name="search-A1">
    <mxGraphModel dx="2125" dy="734" grid="1" gridSize="10" guides="1" tooltips="1" connect="1" arrows="1" fold="1" page="1" pageScale="1" pageWidth="827" pageHeight="1169" math="0" shadow="0">
      <root>
        <mxCell id="0" />
        <mxCell id="1" parent="0" />
        <mxCell id="mSbsyTGOwTCb5BgPJi3K-1" style="edgeStyle=orthogonalEdgeStyle;rounded=0;orthogonalLoop=1;jettySize=auto;html=1;entryX=0;entryY=0.5;entryDx=0;entryDy=0;entryPerimeter=0;fontFamily=Times New Roman;fontSize=22;" parent="1" target="mSbsyTGOwTCb5BgPJi3K-5" edge="1">
          <mxGeometry relative="1" as="geometry">
            <mxPoint x="20" y="170" as="sourcePoint" />
            <Array as="points">
              <mxPoint x="20" y="170" />
            </Array>
          </mxGeometry>
        </mxCell>
        <mxCell id="mSbsyTGOwTCb5BgPJi3K-2" style="edgeStyle=orthogonalEdgeStyle;rounded=0;orthogonalLoop=1;jettySize=auto;html=1;exitX=1;exitY=0.5;exitDx=0;exitDy=0;exitPerimeter=0;entryX=0;entryY=0.5;entryDx=0;entryDy=0;entryPerimeter=0;fontFamily=Times New Roman;fontSize=22;" parent="1" source="mSbsyTGOwTCb5BgPJi3K-5" target="mSbsyTGOwTCb5BgPJi3K-8" edge="1">
          <mxGeometry relative="1" as="geometry" />
        </mxCell>
        <mxCell id="mSbsyTGOwTCb5BgPJi3K-4" style="edgeStyle=orthogonalEdgeStyle;rounded=0;orthogonalLoop=1;jettySize=auto;html=1;exitX=0.5;exitY=0;exitDx=0;exitDy=0;exitPerimeter=0;entryX=0.5;entryY=0;entryDx=0;entryDy=0;entryPerimeter=0;fontFamily=Times New Roman;fontSize=22;" parent="1" target="mSbsyTGOwTCb5BgPJi3K-5" edge="1">
          <mxGeometry relative="1" as="geometry">
            <mxPoint x="199.8461538461538" y="20" as="sourcePoint" />
          </mxGeometry>
        </mxCell>
        <mxCell id="Fqj6c_A199RDc2odYfHI-2" style="edgeStyle=orthogonalEdgeStyle;rounded=0;orthogonalLoop=1;jettySize=auto;html=1;entryX=0.5;entryY=1;entryDx=0;entryDy=0;entryPerimeter=0;fontFamily=Times New Roman;fontSize=22;" parent="1" target="mSbsyTGOwTCb5BgPJi3K-5" edge="1">
          <mxGeometry relative="1" as="geometry">
            <mxPoint x="410" y="510" as="sourcePoint" />
            <Array as="points">
              <mxPoint x="410" y="510" />
              <mxPoint x="410" y="440" />
              <mxPoint x="200" y="440" />
            </Array>
          </mxGeometry>
        </mxCell>
        <mxCell id="mSbsyTGOwTCb5BgPJi3K-5" value="Нормализация" style="shape=stencil(tVTRboMwDPyavFYh2T5gYtt/pKlXotIkcrJ1/fuaGKQiBq0mQEjgu3B3Bhyh69SYCEJJb84g9LtQKmKwkBLdEdww9iK5vHBZDbVJEWxm8MegM/sWmEkZwwku7pB7CecbQJc7Vn8I+UZrulPXNnhPIi74NGLueBIzztOz8pfFevvrqIqkf4YM2IdkVKjP52V3r9sIVxvlHcsO6VfPu57wOHG11YdbTbj6v6yuCZn7uXW9N/Z0xPDtD3+G+XJta0MbkEq+Fi+htOyP5Wai6QZvQgw0dmO7PE4PRn/OmPCJd0FnGqZWA8KDN8G7yYLr7IJiPXEoKG99BbgB);whiteSpace=wrap;html=1;fontFamily=Times New Roman;fontSize=22;spacingBottom=4;points=[[0,0,0,0,0],[0,0.25,0,0,0],[0,0.5,0,0,0],[0,0.75,0,0,0],[0,1,0,0,0],[0.25,0,0,0,0],[0.25,1,0,0,0],[0.5,0,0,0,0],[0.5,1,0,0,0],[0.75,0,0,0,0],[0.75,1,0,0,0],[1,0,0,0,0],[1,0.25,0,0,0],[1,0.5,0,0,0],[1,0.75,0,0,0],[1,1,0,0,0]];" parent="1" vertex="1">
          <mxGeometry x="120" y="120" width="160" height="100" as="geometry" />
        </mxCell>
        <mxCell id="mSbsyTGOwTCb5BgPJi3K-6" style="edgeStyle=orthogonalEdgeStyle;rounded=0;orthogonalLoop=1;jettySize=auto;html=1;exitX=1;exitY=0.5;exitDx=0;exitDy=0;exitPerimeter=0;entryX=0;entryY=0.5;entryDx=0;entryDy=0;entryPerimeter=0;fontFamily=Times New Roman;fontSize=22;" parent="1" source="mSbsyTGOwTCb5BgPJi3K-8" target="mSbsyTGOwTCb5BgPJi3K-12" edge="1">
          <mxGeometry relative="1" as="geometry" />
        </mxCell>
        <mxCell id="mSbsyTGOwTCb5BgPJi3K-8" value="Предсказание позиции ключей" style="shape=stencil(tVTRboMwDPyavFYh2T5gYtt/pKlXotIkcrJ1/fuaGKQiBq0mQEjgu3B3Bhyh69SYCEJJb84g9LtQKmKwkBLdEdww9iK5vHBZDbVJEWxm8MegM/sWmEkZwwku7pB7CecbQJc7Vn8I+UZrulPXNnhPIi74NGLueBIzztOz8pfFevvrqIqkf4YM2IdkVKjP52V3r9sIVxvlHcsO6VfPu57wOHG11YdbTbj6v6yuCZn7uXW9N/Z0xPDtD3+G+XJta0MbkEq+Fi+htOyP5Wai6QZvQgw0dmO7PE4PRn/OmPCJd0FnGqZWA8KDN8G7yYLr7IJiPXEoKG99BbgB);whiteSpace=wrap;html=1;fontFamily=Times New Roman;fontSize=22;spacingBottom=4;points=[[0,0,0,0,0],[0,0.25,0,0,0],[0,0.5,0,0,0],[0,0.75,0,0,0],[0,1,0,0,0],[0.25,0,0,0,0],[0.25,1,0,0,0],[0.5,0,0,0,0],[0.5,1,0,0,0],[0.75,0,0,0,0],[0.75,1,0,0,0],[1,0,0,0,0],[1,0.25,0,0,0],[1,0.5,0,0,0],[1,0.75,0,0,0],[1,1,0,0,0]];fontStyle=1;strokeWidth=2;" parent="1" vertex="1">
          <mxGeometry x="320" y="200" width="180" height="100" as="geometry" />
        </mxCell>
        <mxCell id="mSbsyTGOwTCb5BgPJi3K-11" style="edgeStyle=orthogonalEdgeStyle;rounded=0;orthogonalLoop=1;jettySize=auto;html=1;entryX=0.5;entryY=1;entryDx=0;entryDy=0;entryPerimeter=0;fontFamily=Times New Roman;fontSize=22;" parent="1" target="mSbsyTGOwTCb5BgPJi3K-8" edge="1">
          <mxGeometry relative="1" as="geometry">
            <mxPoint x="410" y="510" as="sourcePoint" />
            <Array as="points">
              <mxPoint x="410" y="510" />
            </Array>
          </mxGeometry>
        </mxCell>
        <mxCell id="6m-PtsyOAIMzXGqf1_rr-2" style="edgeStyle=orthogonalEdgeStyle;shape=connector;rounded=0;orthogonalLoop=1;jettySize=auto;html=1;exitX=1;exitY=0.5;exitDx=0;exitDy=0;exitPerimeter=0;entryX=0;entryY=0.5;entryDx=0;entryDy=0;entryPerimeter=0;labelBackgroundColor=default;strokeColor=default;fontFamily=Times New Roman;fontSize=22;fontColor=default;endArrow=classic;endSize=3;" parent="1" source="mSbsyTGOwTCb5BgPJi3K-12" target="6m-PtsyOAIMzXGqf1_rr-1" edge="1">
          <mxGeometry relative="1" as="geometry" />
        </mxCell>
        <mxCell id="Fqj6c_A199RDc2odYfHI-1" style="edgeStyle=orthogonalEdgeStyle;rounded=0;orthogonalLoop=1;jettySize=auto;html=1;entryX=0.5;entryY=1;entryDx=0;entryDy=0;entryPerimeter=0;fontFamily=Times New Roman;fontSize=22;" parent="1" target="mSbsyTGOwTCb5BgPJi3K-12" edge="1">
          <mxGeometry relative="1" as="geometry">
            <mxPoint x="410" y="510" as="sourcePoint" />
            <Array as="points">
              <mxPoint x="410" y="480" />
              <mxPoint x="630" y="480" />
            </Array>
          </mxGeometry>
        </mxCell>
        <mxCell id="mSbsyTGOwTCb5BgPJi3K-12" value="Уточнение позиции&lt;br style=&quot;font-size: 22px;&quot;&gt;ключей" style="shape=stencil(tVTRboMwDPyavFYh2T5gYtt/pKlXotIkcrJ1/fuaGKQiBq0mQEjgu3B3Bhyh69SYCEJJb84g9LtQKmKwkBLdEdww9iK5vHBZDbVJEWxm8MegM/sWmEkZwwku7pB7CecbQJc7Vn8I+UZrulPXNnhPIi74NGLueBIzztOz8pfFevvrqIqkf4YM2IdkVKjP52V3r9sIVxvlHcsO6VfPu57wOHG11YdbTbj6v6yuCZn7uXW9N/Z0xPDtD3+G+XJta0MbkEq+Fi+htOyP5Wai6QZvQgw0dmO7PE4PRn/OmPCJd0FnGqZWA8KDN8G7yYLr7IJiPXEoKG99BbgB);whiteSpace=wrap;html=1;fontFamily=Times New Roman;fontSize=22;spacingBottom=4;points=[[0,0,0,0,0],[0,0.25,0,0,0],[0,0.5,0,0,0],[0,0.75,0,0,0],[0,1,0,0,0],[0.25,0,0,0,0],[0.25,1,0,0,0],[0.5,0,0,0,0],[0.5,1,0,0,0],[0.75,0,0,0,0],[0.75,1,0,0,0],[1,0,0,0,0],[1,0.25,0,0,0],[1,0.5,0,0,0],[1,0.75,0,0,0],[1,1,0,0,0]];fontStyle=1;strokeWidth=2;" parent="1" vertex="1">
          <mxGeometry x="540" y="280" width="180" height="100" as="geometry" />
        </mxCell>
        <mxCell id="mSbsyTGOwTCb5BgPJi3K-13" value="Ключ/&lt;br style=&quot;font-size: 22px;&quot;&gt;диапазон" style="edgeLabel;html=1;align=center;verticalAlign=middle;resizable=0;points=[];fontFamily=Times New Roman;fontSize=22;labelBackgroundColor=none;" parent="1" vertex="1" connectable="0">
          <mxGeometry x="70" y="150" as="geometry">
            <mxPoint x="-1" y="-9" as="offset" />
          </mxGeometry>
        </mxCell>
        <mxCell id="mSbsyTGOwTCb5BgPJi3K-14" value="Правила&lt;br style=&quot;font-size: 22px;&quot;&gt;нормализации" style="edgeLabel;html=1;align=center;verticalAlign=middle;resizable=0;points=[];fontFamily=Times New Roman;fontSize=22;labelBackgroundColor=none;" parent="1" vertex="1" connectable="0">
          <mxGeometry x="280" y="50" as="geometry" />
        </mxCell>
        <mxCell id="mSbsyTGOwTCb5BgPJi3K-16" value="Построенный&lt;br style=&quot;font-size: 22px;&quot;&gt;индекс" style="edgeLabel;html=1;align=center;verticalAlign=middle;resizable=0;points=[];fontFamily=Times New Roman;fontSize=22;labelBackgroundColor=none;fontStyle=1" parent="1" vertex="1" connectable="0">
          <mxGeometry x="330" y="480" as="geometry" />
        </mxCell>
        <mxCell id="mSbsyTGOwTCb5BgPJi3K-18" value="Нормализованный&lt;br style=&quot;font-size: 22px;&quot;&gt;ключ/диапазон" style="edgeLabel;html=1;align=center;verticalAlign=middle;resizable=0;points=[];fontFamily=Times New Roman;fontSize=22;labelBackgroundColor=none;" parent="1" vertex="1" connectable="0">
          <mxGeometry x="380" y="160" as="geometry">
            <mxPoint x="3" y="2" as="offset" />
          </mxGeometry>
        </mxCell>
        <mxCell id="mSbsyTGOwTCb5BgPJi3K-19" value="Позиция&lt;br style=&quot;font-size: 22px;&quot;&gt;ключей" style="edgeLabel;html=1;align=center;verticalAlign=middle;resizable=0;points=[];fontFamily=Times New Roman;fontSize=22;labelBackgroundColor=none;" parent="1" vertex="1" connectable="0">
          <mxGeometry x="560" y="240" as="geometry">
            <mxPoint y="3" as="offset" />
          </mxGeometry>
        </mxCell>
        <mxCell id="6m-PtsyOAIMzXGqf1_rr-3" style="edgeStyle=orthogonalEdgeStyle;shape=connector;rounded=0;orthogonalLoop=1;jettySize=auto;html=1;labelBackgroundColor=default;strokeColor=default;fontFamily=Times New Roman;fontSize=22;fontColor=default;endArrow=classic;endSize=3;entryX=0.5;entryY=1;entryDx=0;entryDy=0;entryPerimeter=0;" parent="1" target="6m-PtsyOAIMzXGqf1_rr-1" edge="1">
          <mxGeometry relative="1" as="geometry">
            <mxPoint x="410" y="510" as="sourcePoint" />
            <Array as="points">
              <mxPoint x="410" y="480" />
              <mxPoint x="850" y="480" />
            </Array>
          </mxGeometry>
        </mxCell>
        <mxCell id="xRr0Z8ZwFFkxl7I20St3-3" style="edgeStyle=orthogonalEdgeStyle;shape=connector;rounded=0;orthogonalLoop=1;jettySize=auto;html=1;exitX=1;exitY=0.5;exitDx=0;exitDy=0;exitPerimeter=0;labelBackgroundColor=default;strokeColor=default;fontFamily=Times New Roman;fontSize=22;fontColor=default;endArrow=classic;endSize=3;" parent="1" source="6m-PtsyOAIMzXGqf1_rr-1" edge="1">
          <mxGeometry relative="1" as="geometry">
            <mxPoint x="1080" y="410" as="targetPoint" />
          </mxGeometry>
        </mxCell>
        <mxCell id="6m-PtsyOAIMzXGqf1_rr-1" value="Получение указателя на запись" style="shape=stencil(tVTRboMwDPyavFYh2T5gYtt/pKlXotIkcrJ1/fuaGKQiBq0mQEjgu3B3Bhyh69SYCEJJb84g9LtQKmKwkBLdEdww9iK5vHBZDbVJEWxm8MegM/sWmEkZwwku7pB7CecbQJc7Vn8I+UZrulPXNnhPIi74NGLueBIzztOz8pfFevvrqIqkf4YM2IdkVKjP52V3r9sIVxvlHcsO6VfPu57wOHG11YdbTbj6v6yuCZn7uXW9N/Z0xPDtD3+G+XJta0MbkEq+Fi+htOyP5Wai6QZvQgw0dmO7PE4PRn/OmPCJd0FnGqZWA8KDN8G7yYLr7IJiPXEoKG99BbgB);whiteSpace=wrap;html=1;fontFamily=Times New Roman;fontSize=22;spacingBottom=4;points=[[0,0,0,0,0],[0,0.25,0,0,0],[0,0.5,0,0,0],[0,0.75,0,0,0],[0,1,0,0,0],[0.25,0,0,0,0],[0.25,1,0,0,0],[0.5,0,0,0,0],[0.5,1,0,0,0],[0.75,0,0,0,0],[0.75,1,0,0,0],[1,0,0,0,0],[1,0.25,0,0,0],[1,0.5,0,0,0],[1,0.75,0,0,0],[1,1,0,0,0]];" parent="1" vertex="1">
          <mxGeometry x="760" y="360" width="180" height="100" as="geometry" />
        </mxCell>
        <mxCell id="xRr0Z8ZwFFkxl7I20St3-2" value="Точные&lt;br style=&quot;font-size: 22px;&quot;&gt;позиции&lt;br style=&quot;font-size: 22px;&quot;&gt;ключей" style="edgeLabel;html=1;align=center;verticalAlign=middle;resizable=0;points=[];fontFamily=Times New Roman;fontSize=22;labelBackgroundColor=none;" parent="1" vertex="1" connectable="0">
          <mxGeometry x="780" y="310" as="geometry" />
        </mxCell>
        <mxCell id="1gdS0f2S5MyA7sDl5cwi-1" value="&lt;font style=&quot;font-size: 22px;&quot;&gt;&lt;span style=&quot;font-size: 22px;&quot;&gt;Указатели на&lt;br style=&quot;font-size: 22px;&quot;&gt;запись&lt;br style=&quot;font-size: 22px;&quot;&gt;&lt;/span&gt;&lt;/font&gt;" style="edgeLabel;html=1;align=center;verticalAlign=middle;resizable=0;points=[];labelBackgroundColor=none;fontFamily=Times New Roman;fontSize=22;" parent="1" vertex="1" connectable="0">
          <mxGeometry x="1010" y="380" as="geometry" />
        </mxCell>
        <mxCell id="BFAMsz-zrCSnbzqKaoAL-1" value="&lt;p style=&quot;line-height: 1; font-size: 22px;&quot;&gt;А1&lt;/p&gt;" style="shape=stencil(tVTRboMwDPyavFYh2T5gYtt/pKlXotIkcrJ1/fuaGKQiBq0mQEjgu3B3Bhyh69SYCEJJb84g9LtQKmKwkBLdEdww9iK5vHBZDbVJEWxm8MegM/sWmEkZwwku7pB7CecbQJc7Vn8I+UZrulPXNnhPIi74NGLueBIzztOz8pfFevvrqIqkf4YM2IdkVKjP52V3r9sIVxvlHcsO6VfPu57wOHG11YdbTbj6v6yuCZn7uXW9N/Z0xPDtD3+G+XJta0MbkEq+Fi+htOyP5Wai6QZvQgw0dmO7PE4PRn/OmPCJd0FnGqZWA8KDN8G7yYLr7IJiPXEoKG99BbgB);whiteSpace=wrap;html=1;fontFamily=Times New Roman;fontSize=22;spacingBottom=0;strokeColor=none;" parent="1" vertex="1">
          <mxGeometry x="240" y="200" width="40" height="20" as="geometry" />
        </mxCell>
        <mxCell id="BFAMsz-zrCSnbzqKaoAL-2" value="&lt;p style=&quot;line-height: 1; font-size: 22px;&quot;&gt;А2&lt;/p&gt;" style="shape=stencil(tVTRboMwDPyavFYh2T5gYtt/pKlXotIkcrJ1/fuaGKQiBq0mQEjgu3B3Bhyh69SYCEJJb84g9LtQKmKwkBLdEdww9iK5vHBZDbVJEWxm8MegM/sWmEkZwwku7pB7CecbQJc7Vn8I+UZrulPXNnhPIi74NGLueBIzztOz8pfFevvrqIqkf4YM2IdkVKjP52V3r9sIVxvlHcsO6VfPu57wOHG11YdbTbj6v6yuCZn7uXW9N/Z0xPDtD3+G+XJta0MbkEq+Fi+htOyP5Wai6QZvQgw0dmO7PE4PRn/OmPCJd0FnGqZWA8KDN8G7yYLr7IJiPXEoKG99BbgB);whiteSpace=wrap;html=1;fontFamily=Times New Roman;fontSize=22;spacingBottom=0;strokeColor=none;fontStyle=1" parent="1" vertex="1">
          <mxGeometry x="460" y="280" width="40" height="20" as="geometry" />
        </mxCell>
        <mxCell id="BFAMsz-zrCSnbzqKaoAL-4" value="&lt;p style=&quot;line-height: 1; font-size: 22px;&quot;&gt;А3&lt;/p&gt;" style="shape=stencil(tVTRboMwDPyavFYh2T5gYtt/pKlXotIkcrJ1/fuaGKQiBq0mQEjgu3B3Bhyh69SYCEJJb84g9LtQKmKwkBLdEdww9iK5vHBZDbVJEWxm8MegM/sWmEkZwwku7pB7CecbQJc7Vn8I+UZrulPXNnhPIi74NGLueBIzztOz8pfFevvrqIqkf4YM2IdkVKjP52V3r9sIVxvlHcsO6VfPu57wOHG11YdbTbj6v6yuCZn7uXW9N/Z0xPDtD3+G+XJta0MbkEq+Fi+htOyP5Wai6QZvQgw0dmO7PE4PRn/OmPCJd0FnGqZWA8KDN8G7yYLr7IJiPXEoKG99BbgB);whiteSpace=wrap;html=1;fontFamily=Times New Roman;fontSize=22;spacingBottom=0;strokeColor=none;fontStyle=1" parent="1" vertex="1">
          <mxGeometry x="680" y="360" width="40" height="20" as="geometry" />
        </mxCell>
        <mxCell id="BFAMsz-zrCSnbzqKaoAL-5" value="&lt;p style=&quot;line-height: 1; font-size: 22px;&quot;&gt;А4&lt;/p&gt;" style="shape=stencil(tVTRboMwDPyavFYh2T5gYtt/pKlXotIkcrJ1/fuaGKQiBq0mQEjgu3B3Bhyh69SYCEJJb84g9LtQKmKwkBLdEdww9iK5vHBZDbVJEWxm8MegM/sWmEkZwwku7pB7CecbQJc7Vn8I+UZrulPXNnhPIi74NGLueBIzztOz8pfFevvrqIqkf4YM2IdkVKjP52V3r9sIVxvlHcsO6VfPu57wOHG11YdbTbj6v6yuCZn7uXW9N/Z0xPDtD3+G+XJta0MbkEq+Fi+htOyP5Wai6QZvQgw0dmO7PE4PRn/OmPCJd0FnGqZWA8KDN8G7yYLr7IJiPXEoKG99BbgB);whiteSpace=wrap;html=1;fontFamily=Times New Roman;fontSize=22;spacingBottom=0;strokeColor=none;" parent="1" vertex="1">
          <mxGeometry x="900" y="440" width="40" height="20" as="geometry" />
        </mxCell>
        <mxCell id="Yy7QObyQCCBTjxDwc69B-85" style="edgeStyle=orthogonalEdgeStyle;rounded=0;orthogonalLoop=1;jettySize=auto;html=1;entryX=0;entryY=0.25;entryDx=0;entryDy=0;entryPerimeter=0;fontSize=22;" edge="1" parent="1" target="Yy7QObyQCCBTjxDwc69B-92">
          <mxGeometry relative="1" as="geometry">
            <mxPoint x="-40" y="755" as="sourcePoint" />
            <Array as="points">
              <mxPoint x="-30" y="755" />
              <mxPoint x="-30" y="755" />
            </Array>
          </mxGeometry>
        </mxCell>
        <mxCell id="Yy7QObyQCCBTjxDwc69B-86" style="edgeStyle=orthogonalEdgeStyle;rounded=0;orthogonalLoop=1;jettySize=auto;html=1;exitX=1;exitY=0.25;exitDx=0;exitDy=0;exitPerimeter=0;entryX=0;entryY=0.5;entryDx=0;entryDy=0;entryPerimeter=0;fontSize=22;" edge="1" parent="1" source="Yy7QObyQCCBTjxDwc69B-92" target="Yy7QObyQCCBTjxDwc69B-94">
          <mxGeometry relative="1" as="geometry">
            <Array as="points">
              <mxPoint x="340" y="755" />
              <mxPoint x="340" y="841" />
            </Array>
          </mxGeometry>
        </mxCell>
        <mxCell id="Yy7QObyQCCBTjxDwc69B-87" style="edgeStyle=orthogonalEdgeStyle;rounded=0;orthogonalLoop=1;jettySize=auto;html=1;exitX=1;exitY=0.25;exitDx=0;exitDy=0;exitPerimeter=0;entryX=0;entryY=0.75;entryDx=0;entryDy=0;entryPerimeter=0;fontSize=22;" edge="1" parent="1" source="Yy7QObyQCCBTjxDwc69B-92" target="Yy7QObyQCCBTjxDwc69B-101">
          <mxGeometry relative="1" as="geometry">
            <Array as="points">
              <mxPoint x="340" y="755" />
              <mxPoint x="340" y="935" />
            </Array>
          </mxGeometry>
        </mxCell>
        <mxCell id="Yy7QObyQCCBTjxDwc69B-88" style="edgeStyle=orthogonalEdgeStyle;rounded=0;orthogonalLoop=1;jettySize=auto;html=1;entryX=0.5;entryY=0;entryDx=0;entryDy=0;entryPerimeter=0;fontSize=22;" edge="1" parent="1" target="Yy7QObyQCCBTjxDwc69B-92">
          <mxGeometry relative="1" as="geometry">
            <mxPoint x="210" y="610" as="sourcePoint" />
            <Array as="points">
              <mxPoint x="210" y="670" />
              <mxPoint x="210" y="670" />
            </Array>
          </mxGeometry>
        </mxCell>
        <mxCell id="Yy7QObyQCCBTjxDwc69B-89" style="edgeStyle=orthogonalEdgeStyle;rounded=0;orthogonalLoop=1;jettySize=auto;html=1;entryX=0;entryY=0.75;entryDx=0;entryDy=0;entryPerimeter=0;fontSize=22;" edge="1" parent="1" target="Yy7QObyQCCBTjxDwc69B-92">
          <mxGeometry relative="1" as="geometry">
            <mxPoint x="-40" y="805" as="sourcePoint" />
            <Array as="points">
              <mxPoint x="-20" y="805" />
            </Array>
          </mxGeometry>
        </mxCell>
        <mxCell id="Yy7QObyQCCBTjxDwc69B-90" value="Набор&lt;br&gt;указателей&lt;br style=&quot;font-size: 22px;&quot;&gt;на данные" style="edgeLabel;html=1;align=center;verticalAlign=middle;resizable=0;points=[];labelBackgroundColor=none;fontFamily=Times New Roman;fontSize=22;" vertex="1" connectable="0" parent="Yy7QObyQCCBTjxDwc69B-89">
          <mxGeometry x="0.3311" y="-1" relative="1" as="geometry">
            <mxPoint x="-27" y="44" as="offset" />
          </mxGeometry>
        </mxCell>
        <mxCell id="Yy7QObyQCCBTjxDwc69B-91" style="edgeStyle=orthogonalEdgeStyle;rounded=0;orthogonalLoop=1;jettySize=auto;html=1;exitX=1;exitY=0.75;exitDx=0;exitDy=0;exitPerimeter=0;fontSize=22;jumpStyle=none;" edge="1" parent="1" source="Yy7QObyQCCBTjxDwc69B-92">
          <mxGeometry relative="1" as="geometry">
            <mxPoint x="910" y="1010" as="targetPoint" />
            <Array as="points">
              <mxPoint x="320" y="805" />
              <mxPoint x="320" y="1010" />
            </Array>
          </mxGeometry>
        </mxCell>
        <mxCell id="Yy7QObyQCCBTjxDwc69B-116" style="edgeStyle=orthogonalEdgeStyle;rounded=0;orthogonalLoop=1;jettySize=auto;html=1;exitX=1;exitY=0.25;exitDx=0;exitDy=0;exitPerimeter=0;jumpStyle=none;" edge="1" parent="1" source="Yy7QObyQCCBTjxDwc69B-92">
          <mxGeometry relative="1" as="geometry">
            <mxPoint x="910" y="990" as="targetPoint" />
            <Array as="points">
              <mxPoint x="340" y="755" />
              <mxPoint x="340" y="990" />
            </Array>
          </mxGeometry>
        </mxCell>
        <mxCell id="Yy7QObyQCCBTjxDwc69B-92" value="Предварительная обработка входных наборов" style="shape=stencil(tVTRboMwDPyavFYh2T5gYtt/pKlXotIkcrJ1/fuaGKQiBq0mQEjgu3B3Bhyh69SYCEJJb84g9LtQKmKwkBLdEdww9iK5vHBZDbVJEWxm8MegM/sWmEkZwwku7pB7CecbQJc7Vn8I+UZrulPXNnhPIi74NGLueBIzztOz8pfFevvrqIqkf4YM2IdkVKjP52V3r9sIVxvlHcsO6VfPu57wOHG11YdbTbj6v6yuCZn7uXW9N/Z0xPDtD3+G+XJta0MbkEq+Fi+htOyP5Wai6QZvQgw0dmO7PE4PRn/OmPCJd0FnGqZWA8KDN8G7yYLr7IJiPXEoKG99BbgB);whiteSpace=wrap;html=1;fontFamily=Times New Roman;fontSize=22;spacingBottom=13;points=[[0,0,0,0,0],[0,0.25,0,0,0],[0,0.5,0,0,0],[0,0.75,0,0,0],[0,1,0,0,0],[0.25,0,0,0,0],[0.25,1,0,0,0],[0.5,0,0,0,0],[0.5,1,0,0,0],[0.75,0,0,0,0],[0.75,1,0,0,0],[1,0,0,0,0],[1,0.25,0,0,0],[1,0.5,0,0,0],[1,0.75,0,0,0],[1,1,0,0,0]];" vertex="1" parent="1">
          <mxGeometry x="120" y="730" width="180" height="100" as="geometry" />
        </mxCell>
        <mxCell id="Yy7QObyQCCBTjxDwc69B-93" style="edgeStyle=orthogonalEdgeStyle;rounded=0;orthogonalLoop=1;jettySize=auto;html=1;exitX=1;exitY=0.5;exitDx=0;exitDy=0;exitPerimeter=0;entryX=0;entryY=0.25;entryDx=0;entryDy=0;entryPerimeter=0;fontSize=22;" edge="1" parent="1" source="Yy7QObyQCCBTjxDwc69B-94" target="Yy7QObyQCCBTjxDwc69B-101">
          <mxGeometry relative="1" as="geometry">
            <Array as="points">
              <mxPoint x="560" y="841" />
              <mxPoint x="560" y="885" />
            </Array>
          </mxGeometry>
        </mxCell>
        <mxCell id="Yy7QObyQCCBTjxDwc69B-94" value="Получение&lt;br style=&quot;font-size: 22px;&quot;&gt;значений функции распределения" style="shape=stencil(tVTRboMwDPyavFYh2T5gYtt/pKlXotIkcrJ1/fuaGKQiBq0mQEjgu3B3Bhyh69SYCEJJb84g9LtQKmKwkBLdEdww9iK5vHBZDbVJEWxm8MegM/sWmEkZwwku7pB7CecbQJc7Vn8I+UZrulPXNnhPIi74NGLueBIzztOz8pfFevvrqIqkf4YM2IdkVKjP52V3r9sIVxvlHcsO6VfPu57wOHG11YdbTbj6v6yuCZn7uXW9N/Z0xPDtD3+G+XJta0MbkEq+Fi+htOyP5Wai6QZvQgw0dmO7PE4PRn/OmPCJd0FnGqZWA8KDN8G7yYLr7IJiPXEoKG99BbgB);whiteSpace=wrap;html=1;fontFamily=Times New Roman;fontSize=22;spacingBottom=12;points=[[0,0,0,0,0],[0,0.25,0,0,0],[0,0.5,0,0,0],[0,0.75,0,0,0],[0,1,0,0,0],[0.25,0,0,0,0],[0.25,1,0,0,0],[0.5,0,0,0,0],[0.5,1,0,0,0],[0.75,0,0,0,0],[0.75,1,0,0,0],[1,0,0,0,0],[1,0.25,0,0,0],[1,0.5,0,0,0],[1,0.75,0,0,0],[1,1,0,0,0]];" vertex="1" parent="1">
          <mxGeometry x="360" y="791" width="180" height="100" as="geometry" />
        </mxCell>
        <mxCell id="Yy7QObyQCCBTjxDwc69B-95" style="edgeStyle=orthogonalEdgeStyle;rounded=0;orthogonalLoop=1;jettySize=auto;html=1;exitX=1;exitY=0.25;exitDx=0;exitDy=0;exitPerimeter=0;fontSize=22;" edge="1" parent="1" source="Yy7QObyQCCBTjxDwc69B-101">
          <mxGeometry relative="1" as="geometry">
            <mxPoint x="910" y="885" as="targetPoint" />
            <Array as="points">
              <mxPoint x="840" y="885" />
              <mxPoint x="840" y="885" />
            </Array>
          </mxGeometry>
        </mxCell>
        <mxCell id="Yy7QObyQCCBTjxDwc69B-96" value="Обученная&lt;br style=&quot;font-size: 22px;&quot;&gt;нейронная&lt;br&gt;сеть" style="edgeLabel;html=1;align=center;verticalAlign=middle;resizable=0;points=[];fontFamily=Times New Roman;fontSize=22;labelBackgroundColor=none;" vertex="1" connectable="0" parent="Yy7QObyQCCBTjxDwc69B-95">
          <mxGeometry x="0.2855" y="-1" relative="1" as="geometry">
            <mxPoint x="-19" y="-36" as="offset" />
          </mxGeometry>
        </mxCell>
        <mxCell id="Yy7QObyQCCBTjxDwc69B-97" style="edgeStyle=orthogonalEdgeStyle;rounded=0;orthogonalLoop=1;jettySize=auto;html=1;entryX=0.549;entryY=0;entryDx=0;entryDy=0;entryPerimeter=0;fontSize=22;" edge="1" parent="1" target="Yy7QObyQCCBTjxDwc69B-101">
          <mxGeometry relative="1" as="geometry">
            <mxPoint x="690" y="610" as="sourcePoint" />
            <Array as="points">
              <mxPoint x="690" y="830" />
              <mxPoint x="690" y="830" />
            </Array>
          </mxGeometry>
        </mxCell>
        <mxCell id="Yy7QObyQCCBTjxDwc69B-99" style="edgeStyle=orthogonalEdgeStyle;rounded=0;orthogonalLoop=1;jettySize=auto;html=1;exitX=1;exitY=0.5;exitDx=0;exitDy=0;exitPerimeter=0;fontSize=22;" edge="1" parent="1" source="Yy7QObyQCCBTjxDwc69B-101">
          <mxGeometry relative="1" as="geometry">
            <mxPoint x="910" y="910" as="targetPoint" />
            <Array as="points">
              <mxPoint x="880" y="910" />
              <mxPoint x="880" y="910" />
            </Array>
          </mxGeometry>
        </mxCell>
        <mxCell id="Yy7QObyQCCBTjxDwc69B-100" value="&lt;font style=&quot;font-size: 22px;&quot; face=&quot;Times New Roman&quot;&gt;Ошибка&lt;br style=&quot;font-size: 22px;&quot;&gt;предсказания&lt;/font&gt;" style="edgeLabel;html=1;align=center;verticalAlign=middle;resizable=0;points=[];labelBackgroundColor=none;fontSize=22;" vertex="1" connectable="0" parent="Yy7QObyQCCBTjxDwc69B-99">
          <mxGeometry x="0.3017" y="3" relative="1" as="geometry">
            <mxPoint x="-19" y="27" as="offset" />
          </mxGeometry>
        </mxCell>
        <mxCell id="Yy7QObyQCCBTjxDwc69B-101" value="Обучение нейронной сети" style="shape=stencil(tVTRboMwDPyavFYh2T5gYtt/pKlXotIkcrJ1/fuaGKQiBq0mQEjgu3B3Bhyh69SYCEJJb84g9LtQKmKwkBLdEdww9iK5vHBZDbVJEWxm8MegM/sWmEkZwwku7pB7CecbQJc7Vn8I+UZrulPXNnhPIi74NGLueBIzztOz8pfFevvrqIqkf4YM2IdkVKjP52V3r9sIVxvlHcsO6VfPu57wOHG11YdbTbj6v6yuCZn7uXW9N/Z0xPDtD3+G+XJta0MbkEq+Fi+htOyP5Wai6QZvQgw0dmO7PE4PRn/OmPCJd0FnGqZWA8KDN8G7yYLr7IJiPXEoKG99BbgB);whiteSpace=wrap;html=1;fontFamily=Times New Roman;fontSize=22;spacingBottom=4;points=[[0,0,0,0,0],[0,0.25,0,0,0],[0,0.5,0,0,0],[0,0.75,0,0,0],[0,1,0,0,0],[0.25,0,0,0,0],[0.25,1,0,0,0],[0.5,0,0,0,0],[0.5,1,0,0,0],[0.75,0,0,0,0],[0.75,1,0,0,0],[1,0,0,0,0],[1,0.25,0,0,0],[1,0.5,0,0,0],[1,0.75,0,0,0],[1,1,0,0,0]];" vertex="1" parent="1">
          <mxGeometry x="580" y="860" width="200" height="100" as="geometry" />
        </mxCell>
        <mxCell id="Yy7QObyQCCBTjxDwc69B-102" value="Набор&lt;br&gt;уникальных&lt;br&gt;целочисленных&lt;br style=&quot;font-size: 22px;&quot;&gt;ключей" style="edgeLabel;html=1;align=center;verticalAlign=middle;resizable=0;points=[];fontFamily=Times New Roman;fontSize=22;labelBackgroundColor=none;" vertex="1" connectable="0" parent="1">
          <mxGeometry x="30" y="700" as="geometry">
            <mxPoint x="17" y="2" as="offset" />
          </mxGeometry>
        </mxCell>
        <mxCell id="Yy7QObyQCCBTjxDwc69B-103" value="Правила&lt;br style=&quot;font-size: 22px;&quot;&gt;предварительной&lt;br style=&quot;font-size: 22px;&quot;&gt;обработки данных" style="edgeLabel;html=1;align=center;verticalAlign=middle;resizable=0;points=[];fontFamily=Times New Roman;fontSize=22;labelBackgroundColor=none;" vertex="1" connectable="0" parent="1">
          <mxGeometry x="300" y="650" as="geometry" />
        </mxCell>
        <mxCell id="Yy7QObyQCCBTjxDwc69B-104" value="Архитектура&lt;br style=&quot;font-size: 22px;&quot;&gt;нейронной&lt;br style=&quot;font-size: 22px;&quot;&gt;сети" style="edgeLabel;html=1;align=center;verticalAlign=middle;resizable=0;points=[];fontFamily=Times New Roman;fontSize=22;labelBackgroundColor=none;" vertex="1" connectable="0" parent="1">
          <mxGeometry x="750" y="650" as="geometry">
            <mxPoint x="3" as="offset" />
          </mxGeometry>
        </mxCell>
        <mxCell id="Yy7QObyQCCBTjxDwc69B-105" value="Алгоритм&lt;br style=&quot;font-size: 22px;&quot;&gt;обучения" style="edgeLabel;html=1;align=center;verticalAlign=middle;resizable=0;points=[];fontFamily=Times New Roman;fontSize=22;labelBackgroundColor=none;" vertex="1" connectable="0" parent="1">
          <mxGeometry x="640" y="1000" as="geometry">
            <mxPoint y="43" as="offset" />
          </mxGeometry>
        </mxCell>
        <mxCell id="Yy7QObyQCCBTjxDwc69B-106" value="Обработанный&lt;br style=&quot;font-size: 22px;&quot;&gt;набор ключей" style="edgeLabel;html=1;align=center;verticalAlign=middle;resizable=0;points=[];fontFamily=Times New Roman;fontSize=22;labelBackgroundColor=none;" vertex="1" connectable="0" parent="1">
          <mxGeometry x="370" y="721" as="geometry">
            <mxPoint x="3" y="2" as="offset" />
          </mxGeometry>
        </mxCell>
        <mxCell id="Yy7QObyQCCBTjxDwc69B-107" value="Значения&lt;br style=&quot;font-size: 22px;&quot;&gt;функции&lt;br style=&quot;font-size: 22px;&quot;&gt;распределения&lt;br style=&quot;font-size: 22px;&quot;&gt;ключей" style="edgeLabel;html=1;align=center;verticalAlign=middle;resizable=0;points=[];fontFamily=Times New Roman;fontSize=22;labelBackgroundColor=none;" vertex="1" connectable="0" parent="1">
          <mxGeometry x="614" y="798" as="geometry" />
        </mxCell>
        <mxCell id="Yy7QObyQCCBTjxDwc69B-108" value="Обработанный&lt;br style=&quot;font-size: 22px;&quot;&gt;набор указателей&lt;br style=&quot;font-size: 22px;&quot;&gt;на данные" style="edgeLabel;html=1;align=center;verticalAlign=middle;resizable=0;points=[];fontFamily=Times New Roman;fontSize=22;labelBackgroundColor=none;" vertex="1" connectable="0" parent="1">
          <mxGeometry x="220" y="950" as="geometry">
            <mxPoint x="3" y="2" as="offset" />
          </mxGeometry>
        </mxCell>
        <mxCell id="Yy7QObyQCCBTjxDwc69B-109" value="&lt;p style=&quot;line-height: 1; font-size: 22px;&quot;&gt;А1&lt;/p&gt;" style="shape=stencil(tVTRboMwDPyavFYh2T5gYtt/pKlXotIkcrJ1/fuaGKQiBq0mQEjgu3B3Bhyh69SYCEJJb84g9LtQKmKwkBLdEdww9iK5vHBZDbVJEWxm8MegM/sWmEkZwwku7pB7CecbQJc7Vn8I+UZrulPXNnhPIi74NGLueBIzztOz8pfFevvrqIqkf4YM2IdkVKjP52V3r9sIVxvlHcsO6VfPu57wOHG11YdbTbj6v6yuCZn7uXW9N/Z0xPDtD3+G+XJta0MbkEq+Fi+htOyP5Wai6QZvQgw0dmO7PE4PRn/OmPCJd0FnGqZWA8KDN8G7yYLr7IJiPXEoKG99BbgB);whiteSpace=wrap;html=1;fontFamily=Times New Roman;fontSize=22;spacingBottom=0;strokeColor=none;" vertex="1" parent="1">
          <mxGeometry x="260" y="810" width="40" height="20" as="geometry" />
        </mxCell>
        <mxCell id="Yy7QObyQCCBTjxDwc69B-110" value="&lt;p style=&quot;line-height: 1; font-size: 22px;&quot;&gt;А2&lt;/p&gt;" style="shape=stencil(tVTRboMwDPyavFYh2T5gYtt/pKlXotIkcrJ1/fuaGKQiBq0mQEjgu3B3Bhyh69SYCEJJb84g9LtQKmKwkBLdEdww9iK5vHBZDbVJEWxm8MegM/sWmEkZwwku7pB7CecbQJc7Vn8I+UZrulPXNnhPIi74NGLueBIzztOz8pfFevvrqIqkf4YM2IdkVKjP52V3r9sIVxvlHcsO6VfPu57wOHG11YdbTbj6v6yuCZn7uXW9N/Z0xPDtD3+G+XJta0MbkEq+Fi+htOyP5Wai6QZvQgw0dmO7PE4PRn/OmPCJd0FnGqZWA8KDN8G7yYLr7IJiPXEoKG99BbgB);whiteSpace=wrap;html=1;fontFamily=Times New Roman;fontSize=22;spacingBottom=0;strokeColor=none;" vertex="1" parent="1">
          <mxGeometry x="500" y="871" width="40" height="20" as="geometry" />
        </mxCell>
        <mxCell id="Yy7QObyQCCBTjxDwc69B-111" value="&lt;p style=&quot;line-height: 1; font-size: 22px;&quot;&gt;А3&lt;/p&gt;" style="shape=stencil(tVTRboMwDPyavFYh2T5gYtt/pKlXotIkcrJ1/fuaGKQiBq0mQEjgu3B3Bhyh69SYCEJJb84g9LtQKmKwkBLdEdww9iK5vHBZDbVJEWxm8MegM/sWmEkZwwku7pB7CecbQJc7Vn8I+UZrulPXNnhPIi74NGLueBIzztOz8pfFevvrqIqkf4YM2IdkVKjP52V3r9sIVxvlHcsO6VfPu57wOHG11YdbTbj6v6yuCZn7uXW9N/Z0xPDtD3+G+XJta0MbkEq+Fi+htOyP5Wai6QZvQgw0dmO7PE4PRn/OmPCJd0FnGqZWA8KDN8G7yYLr7IJiPXEoKG99BbgB);whiteSpace=wrap;html=1;fontFamily=Times New Roman;fontSize=22;spacingBottom=0;strokeColor=none;" vertex="1" parent="1">
          <mxGeometry x="740" y="940" width="40" height="20" as="geometry" />
        </mxCell>
        <mxCell id="Yy7QObyQCCBTjxDwc69B-112" style="edgeStyle=orthogonalEdgeStyle;rounded=0;orthogonalLoop=1;jettySize=auto;html=1;entryX=0.5;entryY=0;entryDx=0;entryDy=0;entryPerimeter=0;fontSize=22;" edge="1" parent="1" target="Yy7QObyQCCBTjxDwc69B-94">
          <mxGeometry relative="1" as="geometry">
            <mxPoint x="210" y="610" as="sourcePoint" />
            <Array as="points">
              <mxPoint x="210" y="690" />
              <mxPoint x="450" y="690" />
            </Array>
            <mxPoint x="445" y="830" as="targetPoint" />
          </mxGeometry>
        </mxCell>
        <mxCell id="Yy7QObyQCCBTjxDwc69B-115" style="edgeStyle=orthogonalEdgeStyle;rounded=0;orthogonalLoop=1;jettySize=auto;html=1;fontSize=22;jumpStyle=arc;" edge="1" parent="1">
          <mxGeometry relative="1" as="geometry">
            <mxPoint x="690" y="1070" as="sourcePoint" />
            <Array as="points">
              <mxPoint x="690" y="960" />
            </Array>
            <mxPoint x="690" y="960" as="targetPoint" />
          </mxGeometry>
        </mxCell>
      </root>
    </mxGraphModel>
  </diagram>
  <diagram id="c2byIUGG7eo6Helmw2y2" name="sw-struct">
    <mxGraphModel dx="844" dy="477" grid="1" gridSize="10" guides="1" tooltips="1" connect="1" arrows="1" fold="1" page="1" pageScale="1" pageWidth="827" pageHeight="1169" math="0" shadow="0">
      <root>
        <mxCell id="0" />
        <mxCell id="1" parent="0" />
        <mxCell id="q1boRHYz33fF3krOk_1n-17" style="shape=connector;rounded=0;orthogonalLoop=1;jettySize=auto;html=1;exitX=1.009;exitY=0.664;exitDx=0;exitDy=0;labelBackgroundColor=default;strokeColor=default;fontFamily=Times New Roman;fontSize=14;fontColor=default;startArrow=none;startFill=0;endArrow=classic;startSize=3;endSize=3;entryX=0.069;entryY=0.649;entryDx=0;entryDy=0;entryPerimeter=0;exitPerimeter=0;dashed=1;" parent="1" source="q1boRHYz33fF3krOk_1n-1" target="q1boRHYz33fF3krOk_1n-4" edge="1">
          <mxGeometry relative="1" as="geometry">
            <mxPoint x="220" y="150" as="targetPoint" />
          </mxGeometry>
        </mxCell>
        <mxCell id="q1boRHYz33fF3krOk_1n-18" value="ключи и&lt;br&gt;указатели" style="edgeLabel;html=1;align=center;verticalAlign=middle;resizable=0;points=[];fontSize=14;fontFamily=Times New Roman;fontColor=default;labelBackgroundColor=none;" parent="q1boRHYz33fF3krOk_1n-17" vertex="1" connectable="0">
          <mxGeometry x="-0.1809" relative="1" as="geometry">
            <mxPoint x="4" y="20" as="offset" />
          </mxGeometry>
        </mxCell>
        <mxCell id="q1boRHYz33fF3krOk_1n-1" value="Реляционная&lt;br style=&quot;font-size: 14px;&quot;&gt;база данных&lt;br style=&quot;font-size: 14px;&quot;&gt;&lt;br style=&quot;font-size: 14px;&quot;&gt;&lt;br style=&quot;font-size: 14px;&quot;&gt;SQLite" style="shape=datastore;whiteSpace=wrap;html=1;fillColor=none;labelPosition=center;verticalLabelPosition=middle;align=center;verticalAlign=middle;fontFamily=Times New Roman;fontSize=14;spacingBottom=64;" parent="1" vertex="1">
          <mxGeometry x="80" y="100" width="60" height="60" as="geometry" />
        </mxCell>
        <mxCell id="q1boRHYz33fF3krOk_1n-10" style="edgeStyle=orthogonalEdgeStyle;shape=connector;rounded=0;orthogonalLoop=1;jettySize=auto;html=1;exitX=0.402;exitY=-0.008;exitDx=0;exitDy=0;labelBackgroundColor=default;strokeColor=default;fontFamily=Times New Roman;fontSize=14;fontColor=default;startArrow=none;startFill=0;endArrow=classic;startSize=3;endSize=3;exitPerimeter=0;entryX=0.4;entryY=1.014;entryDx=0;entryDy=0;entryPerimeter=0;" parent="1" source="q1boRHYz33fF3krOk_1n-2" target="q1boRHYz33fF3krOk_1n-4" edge="1">
          <mxGeometry relative="1" as="geometry">
            <mxPoint x="290.01" y="226.2" as="sourcePoint" />
            <mxPoint x="300" y="170" as="targetPoint" />
            <Array as="points" />
          </mxGeometry>
        </mxCell>
        <mxCell id="q1boRHYz33fF3krOk_1n-11" value="запрос на&lt;br style=&quot;font-size: 14px;&quot;&gt;осуществление&lt;br style=&quot;font-size: 14px;&quot;&gt;операции" style="edgeLabel;html=1;align=center;verticalAlign=middle;resizable=0;points=[];fontSize=14;fontFamily=Times New Roman;fontColor=default;labelBackgroundColor=none;" parent="q1boRHYz33fF3krOk_1n-10" vertex="1" connectable="0">
          <mxGeometry x="-0.349" y="1" relative="1" as="geometry">
            <mxPoint x="-48" y="-9" as="offset" />
          </mxGeometry>
        </mxCell>
        <mxCell id="q1boRHYz33fF3krOk_1n-2" value="Модуль взаимодействия с пользователем" style="shape=module;align=left;spacingLeft=20;align=center;verticalAlign=middle;whiteSpace=wrap;html=1;fillColor=none;fontFamily=Times New Roman;fontSize=14;spacingBottom=14;" parent="1" vertex="1">
          <mxGeometry x="240" y="226.74" width="150" height="63.26" as="geometry" />
        </mxCell>
        <mxCell id="q1boRHYz33fF3krOk_1n-12" style="shape=connector;rounded=0;orthogonalLoop=1;jettySize=auto;html=1;exitX=0.066;exitY=0.357;exitDx=0;exitDy=0;exitPerimeter=0;entryX=1.008;entryY=0.332;entryDx=0;entryDy=0;entryPerimeter=0;labelBackgroundColor=default;strokeColor=default;fontFamily=Times New Roman;fontSize=14;fontColor=default;startArrow=none;startFill=0;endArrow=classic;startSize=3;endSize=3;" parent="1" source="q1boRHYz33fF3krOk_1n-4" target="q1boRHYz33fF3krOk_1n-1" edge="1">
          <mxGeometry relative="1" as="geometry" />
        </mxCell>
        <mxCell id="q1boRHYz33fF3krOk_1n-13" value="запрос&lt;br&gt;получения&lt;br style=&quot;font-size: 14px;&quot;&gt;ключей и&lt;br&gt;указателей" style="edgeLabel;html=1;align=center;verticalAlign=middle;resizable=0;points=[];fontSize=14;fontFamily=Times New Roman;fontColor=default;labelBackgroundColor=none;" parent="q1boRHYz33fF3krOk_1n-12" vertex="1" connectable="0">
          <mxGeometry x="0.3177" y="-1" relative="1" as="geometry">
            <mxPoint x="12" y="-39" as="offset" />
          </mxGeometry>
        </mxCell>
        <mxCell id="q1boRHYz33fF3krOk_1n-4" value="Модуль взаимодействия с базой данных" style="shape=module;align=left;spacingLeft=20;align=center;verticalAlign=middle;whiteSpace=wrap;html=1;fillColor=none;fontFamily=Times New Roman;fontSize=14;spacingBottom=13;" parent="1" vertex="1">
          <mxGeometry x="240" y="95" width="150" height="70" as="geometry" />
        </mxCell>
        <mxCell id="q1boRHYz33fF3krOk_1n-5" value="Модуль индекса на основе глубоких нейронных сетях" style="shape=module;align=left;spacingLeft=20;align=center;verticalAlign=middle;whiteSpace=wrap;html=1;fillColor=none;fontFamily=Times New Roman;fontSize=14;spacingBottom=13;" parent="1" vertex="1">
          <mxGeometry x="490" y="95" width="150" height="70" as="geometry" />
        </mxCell>
        <mxCell id="q1boRHYz33fF3krOk_1n-14" style="edgeStyle=orthogonalEdgeStyle;shape=connector;rounded=0;orthogonalLoop=1;jettySize=auto;html=1;exitX=0.161;exitY=1.13;exitDx=0;exitDy=0;labelBackgroundColor=default;strokeColor=default;fontFamily=Times New Roman;fontSize=14;fontColor=default;startArrow=none;startFill=0;endArrow=classic;startSize=3;endSize=3;exitPerimeter=0;dashed=1;entryX=0.669;entryY=0.001;entryDx=0;entryDy=0;entryPerimeter=0;" parent="1" source="XvQzxlpRZecoYj2Uvf7V-1" target="q1boRHYz33fF3krOk_1n-2" edge="1">
          <mxGeometry relative="1" as="geometry">
            <mxPoint x="350.17999999999995" y="165.54" as="sourcePoint" />
            <mxPoint x="340" y="220" as="targetPoint" />
            <Array as="points">
              <mxPoint x="340" y="227" />
            </Array>
          </mxGeometry>
        </mxCell>
        <mxCell id="q1boRHYz33fF3krOk_1n-15" value="ответ на&lt;br style=&quot;font-size: 14px;&quot;&gt;запрос" style="edgeLabel;html=1;align=center;verticalAlign=middle;resizable=0;points=[];fontSize=14;fontFamily=Times New Roman;fontColor=default;labelBackgroundColor=none;" parent="q1boRHYz33fF3krOk_1n-14" vertex="1" connectable="0">
          <mxGeometry x="-0.349" y="1" relative="1" as="geometry">
            <mxPoint x="28" y="11" as="offset" />
          </mxGeometry>
        </mxCell>
        <mxCell id="q1boRHYz33fF3krOk_1n-19" style="shape=connector;rounded=0;orthogonalLoop=1;jettySize=auto;html=1;exitX=0.076;exitY=0.639;exitDx=0;exitDy=0;labelBackgroundColor=default;strokeColor=default;fontFamily=Times New Roman;fontSize=14;fontColor=default;startArrow=none;startFill=0;endArrow=classic;startSize=3;endSize=3;entryX=0.069;entryY=0.649;entryDx=0;entryDy=0;entryPerimeter=0;exitPerimeter=0;dashed=1;" parent="1" source="q1boRHYz33fF3krOk_1n-5" edge="1">
          <mxGeometry relative="1" as="geometry">
            <mxPoint x="391" y="139.81" as="targetPoint" />
            <mxPoint x="530" y="139.81" as="sourcePoint" />
          </mxGeometry>
        </mxCell>
        <mxCell id="q1boRHYz33fF3krOk_1n-20" value="результат&lt;br&gt;выполнения&lt;br style=&quot;font-size: 14px;&quot;&gt;операции" style="edgeLabel;html=1;align=center;verticalAlign=middle;resizable=0;points=[];fontSize=14;fontFamily=Times New Roman;fontColor=default;labelBackgroundColor=none;" parent="q1boRHYz33fF3krOk_1n-19" vertex="1" connectable="0">
          <mxGeometry x="-0.1809" relative="1" as="geometry">
            <mxPoint x="-16" y="25" as="offset" />
          </mxGeometry>
        </mxCell>
        <mxCell id="q1boRHYz33fF3krOk_1n-21" style="shape=connector;rounded=0;orthogonalLoop=1;jettySize=auto;html=1;exitX=0.066;exitY=0.357;exitDx=0;exitDy=0;exitPerimeter=0;labelBackgroundColor=default;strokeColor=default;fontFamily=Times New Roman;fontSize=14;fontColor=default;startArrow=none;startFill=0;endArrow=classic;startSize=3;endSize=3;" parent="1" edge="1">
          <mxGeometry relative="1" as="geometry">
            <mxPoint x="390" y="119.81" as="sourcePoint" />
            <mxPoint x="500" y="120" as="targetPoint" />
          </mxGeometry>
        </mxCell>
        <mxCell id="q1boRHYz33fF3krOk_1n-22" value="вызов метода&lt;br style=&quot;font-size: 14px;&quot;&gt;операции" style="edgeLabel;html=1;align=center;verticalAlign=middle;resizable=0;points=[];fontSize=14;fontFamily=Times New Roman;fontColor=default;labelBackgroundColor=none;" parent="q1boRHYz33fF3krOk_1n-21" vertex="1" connectable="0">
          <mxGeometry x="0.3177" y="-1" relative="1" as="geometry">
            <mxPoint x="-22" y="-21" as="offset" />
          </mxGeometry>
        </mxCell>
        <mxCell id="XvQzxlpRZecoYj2Uvf7V-1" value="SQLite, C" style="text;html=1;strokeColor=default;fillColor=none;align=center;verticalAlign=middle;whiteSpace=wrap;rounded=0;fontFamily=Times New Roman;fontStyle=0;fontSize=14;" parent="1" vertex="1">
          <mxGeometry x="330" y="150" width="60" height="15" as="geometry" />
        </mxCell>
        <mxCell id="XvQzxlpRZecoYj2Uvf7V-2" value="SQLite" style="text;html=1;strokeColor=default;fillColor=none;align=center;verticalAlign=middle;whiteSpace=wrap;rounded=0;fontFamily=Times New Roman;fontStyle=0;fontSize=14;" parent="1" vertex="1">
          <mxGeometry x="340" y="275" width="50" height="15" as="geometry" />
        </mxCell>
        <mxCell id="XvQzxlpRZecoYj2Uvf7V-3" value="Python, Pytorch" style="text;html=1;strokeColor=default;fillColor=none;align=center;verticalAlign=middle;whiteSpace=wrap;rounded=0;fontFamily=Times New Roman;fontStyle=0;fontSize=14;" parent="1" vertex="1">
          <mxGeometry x="540" y="150" width="100" height="15" as="geometry" />
        </mxCell>
      </root>
    </mxGraphModel>
  </diagram>
  <diagram id="V5R5bRR4fFie7nhPhEWU" name="Страница 6">
    <mxGraphModel dx="844" dy="477" grid="1" gridSize="10" guides="1" tooltips="1" connect="1" arrows="1" fold="1" page="1" pageScale="1" pageWidth="827" pageHeight="1169" math="0" shadow="0">
      <root>
        <mxCell id="0" />
        <mxCell id="1" parent="0" />
        <mxCell id="hTDf5nkWKmeCR9dpcv33-2" style="edgeStyle=orthogonalEdgeStyle;rounded=0;orthogonalLoop=1;jettySize=auto;html=1;exitX=1;exitY=0.5;exitDx=0;exitDy=0;exitPerimeter=0;entryX=0;entryY=0.25;entryDx=0;entryDy=0;entryPerimeter=0;fontFamily=Times New Roman;fontSize=18;" parent="1" source="hTDf5nkWKmeCR9dpcv33-5" target="hTDf5nkWKmeCR9dpcv33-7" edge="1">
          <mxGeometry relative="1" as="geometry" />
        </mxCell>
        <mxCell id="hTDf5nkWKmeCR9dpcv33-3" style="edgeStyle=orthogonalEdgeStyle;rounded=0;orthogonalLoop=1;jettySize=auto;html=1;exitX=0.5;exitY=0;exitDx=0;exitDy=0;exitPerimeter=0;entryX=0.5;entryY=0;entryDx=0;entryDy=0;entryPerimeter=0;fontFamily=Times New Roman;fontSize=18;" parent="1" target="hTDf5nkWKmeCR9dpcv33-5" edge="1">
          <mxGeometry relative="1" as="geometry">
            <mxPoint x="199.8461538461538" y="20" as="sourcePoint" />
          </mxGeometry>
        </mxCell>
        <mxCell id="hTDf5nkWKmeCR9dpcv33-4" style="edgeStyle=orthogonalEdgeStyle;rounded=0;orthogonalLoop=1;jettySize=auto;html=1;entryX=0.5;entryY=1;entryDx=0;entryDy=0;entryPerimeter=0;fontFamily=Times New Roman;fontSize=18;jumpStyle=none;" parent="1" target="hTDf5nkWKmeCR9dpcv33-5" edge="1">
          <mxGeometry relative="1" as="geometry">
            <mxPoint x="400" y="420" as="sourcePoint" />
            <Array as="points">
              <mxPoint x="400" y="380" />
              <mxPoint x="200" y="380" />
            </Array>
          </mxGeometry>
        </mxCell>
        <mxCell id="hTDf5nkWKmeCR9dpcv33-5" value="Поиск позиции вставки ключа" style="shape=stencil(tVTRboMwDPyavFYh2T5gYtt/pKlXotIkcrJ1/fuaGKQiBq0mQEjgu3B3Bhyh69SYCEJJb84g9LtQKmKwkBLdEdww9iK5vHBZDbVJEWxm8MegM/sWmEkZwwku7pB7CecbQJc7Vn8I+UZrulPXNnhPIi74NGLueBIzztOz8pfFevvrqIqkf4YM2IdkVKjP52V3r9sIVxvlHcsO6VfPu57wOHG11YdbTbj6v6yuCZn7uXW9N/Z0xPDtD3+G+XJta0MbkEq+Fi+htOyP5Wai6QZvQgw0dmO7PE4PRn/OmPCJd0FnGqZWA8KDN8G7yYLr7IJiPXEoKG99BbgB);whiteSpace=wrap;html=1;fontFamily=Times New Roman;fontSize=18;spacingBottom=4;points=[[0,0,0,0,0],[0,0.25,0,0,0],[0,0.5,0,0,0],[0,0.75,0,0,0],[0,1,0,0,0],[0.25,0,0,0,0],[0.25,1,0,0,0],[0.5,0,0,0,0],[0.5,1,0,0,0],[0.75,0,0,0,0],[0.75,1,0,0,0],[1,0,0,0,0],[1,0.25,0,0,0],[1,0.5,0,0,0],[1,0.75,0,0,0],[1,1,0,0,0]];fontStyle=1;strokeWidth=2;" parent="1" vertex="1">
          <mxGeometry x="120" y="120" width="160" height="80" as="geometry" />
        </mxCell>
        <mxCell id="hTDf5nkWKmeCR9dpcv33-6" style="edgeStyle=orthogonalEdgeStyle;rounded=0;orthogonalLoop=1;jettySize=auto;html=1;exitX=1;exitY=0.5;exitDx=0;exitDy=0;exitPerimeter=0;entryX=0;entryY=0.5;entryDx=0;entryDy=0;entryPerimeter=0;fontFamily=Times New Roman;fontSize=18;" parent="1" source="hTDf5nkWKmeCR9dpcv33-7" target="hTDf5nkWKmeCR9dpcv33-11" edge="1">
          <mxGeometry relative="1" as="geometry" />
        </mxCell>
        <mxCell id="hTDf5nkWKmeCR9dpcv33-7" value="Вставка ключа и указателя в массивы" style="shape=stencil(tVTRboMwDPyavFYh2T5gYtt/pKlXotIkcrJ1/fuaGKQiBq0mQEjgu3B3Bhyh69SYCEJJb84g9LtQKmKwkBLdEdww9iK5vHBZDbVJEWxm8MegM/sWmEkZwwku7pB7CecbQJc7Vn8I+UZrulPXNnhPIi74NGLueBIzztOz8pfFevvrqIqkf4YM2IdkVKjP52V3r9sIVxvlHcsO6VfPu57wOHG11YdbTbj6v6yuCZn7uXW9N/Z0xPDtD3+G+XJta0MbkEq+Fi+htOyP5Wai6QZvQgw0dmO7PE4PRn/OmPCJd0FnGqZWA8KDN8G7yYLr7IJiPXEoKG99BbgB);whiteSpace=wrap;html=1;fontFamily=Times New Roman;fontSize=18;spacingBottom=4;points=[[0,0,0,0,0],[0,0.25,0,0,0],[0,0.5,0,0,0],[0,0.75,0,0,0],[0,1,0,0,0],[0.25,0,0,0,0],[0.25,1,0,0,0],[0.5,0,0,0,0],[0.5,1,0,0,0],[0.75,0,0,0,0],[0.75,1,0,0,0],[1,0,0,0,0],[1,0.25,0,0,0],[1,0.5,0,0,0],[1,0.75,0,0,0],[1,1,0,0,0]];fontStyle=0" parent="1" vertex="1">
          <mxGeometry x="320" y="200" width="160" height="80" as="geometry" />
        </mxCell>
        <mxCell id="hTDf5nkWKmeCR9dpcv33-8" style="edgeStyle=orthogonalEdgeStyle;rounded=0;orthogonalLoop=1;jettySize=auto;html=1;entryX=0.5;entryY=1;entryDx=0;entryDy=0;entryPerimeter=0;fontFamily=Times New Roman;fontSize=18;" parent="1" target="hTDf5nkWKmeCR9dpcv33-7" edge="1">
          <mxGeometry relative="1" as="geometry">
            <mxPoint x="400" y="420" as="sourcePoint" />
          </mxGeometry>
        </mxCell>
        <mxCell id="hTDf5nkWKmeCR9dpcv33-10" style="edgeStyle=orthogonalEdgeStyle;rounded=0;orthogonalLoop=1;jettySize=auto;html=1;entryX=0.5;entryY=1;entryDx=0;entryDy=0;entryPerimeter=0;fontFamily=Times New Roman;fontSize=18;" parent="1" target="hTDf5nkWKmeCR9dpcv33-11" edge="1">
          <mxGeometry relative="1" as="geometry">
            <mxPoint x="400" y="420" as="sourcePoint" />
            <Array as="points">
              <mxPoint x="400" y="400" />
              <mxPoint x="600" y="400" />
            </Array>
          </mxGeometry>
        </mxCell>
        <mxCell id="hTDf5nkWKmeCR9dpcv33-11" value="Переобучение&lt;br&gt;модели" style="shape=stencil(tVTRboMwDPyavFYh2T5gYtt/pKlXotIkcrJ1/fuaGKQiBq0mQEjgu3B3Bhyh69SYCEJJb84g9LtQKmKwkBLdEdww9iK5vHBZDbVJEWxm8MegM/sWmEkZwwku7pB7CecbQJc7Vn8I+UZrulPXNnhPIi74NGLueBIzztOz8pfFevvrqIqkf4YM2IdkVKjP52V3r9sIVxvlHcsO6VfPu57wOHG11YdbTbj6v6yuCZn7uXW9N/Z0xPDtD3+G+XJta0MbkEq+Fi+htOyP5Wai6QZvQgw0dmO7PE4PRn/OmPCJd0FnGqZWA8KDN8G7yYLr7IJiPXEoKG99BbgB);whiteSpace=wrap;html=1;fontFamily=Times New Roman;fontSize=18;spacingBottom=4;points=[[0,0,0,0,0],[0,0.25,0,0,0],[0,0.5,0,0,0],[0,0.75,0,0,0],[0,1,0,0,0],[0.25,0,0,0,0],[0.25,1,0,0,0],[0.5,0,0,0,0],[0.5,1,0,0,0],[0.75,0,0,0,0],[0.75,1,0,0,0],[1,0,0,0,0],[1,0.25,0,0,0],[1,0.5,0,0,0],[1,0.75,0,0,0],[1,1,0,0,0]];fontStyle=1;strokeWidth=2;" parent="1" vertex="1">
          <mxGeometry x="520" y="280" width="160" height="80" as="geometry" />
        </mxCell>
        <mxCell id="hTDf5nkWKmeCR9dpcv33-13" value="Правила&lt;br style=&quot;font-size: 18px;&quot;&gt;нормализации" style="edgeLabel;html=1;align=center;verticalAlign=middle;resizable=0;points=[];fontFamily=Times New Roman;fontSize=18;labelBackgroundColor=none;" parent="1" vertex="1" connectable="0">
          <mxGeometry x="260" y="50" as="geometry" />
        </mxCell>
        <mxCell id="hTDf5nkWKmeCR9dpcv33-14" value="Построенный&lt;br style=&quot;font-size: 18px;&quot;&gt;индекс" style="edgeLabel;html=1;align=center;verticalAlign=middle;resizable=0;points=[];fontFamily=Times New Roman;fontSize=18;labelBackgroundColor=none;fontStyle=1" parent="1" vertex="1" connectable="0">
          <mxGeometry x="340" y="410" as="geometry">
            <mxPoint x="-10" y="-10" as="offset" />
          </mxGeometry>
        </mxCell>
        <mxCell id="hTDf5nkWKmeCR9dpcv33-15" value="Позиция&lt;br&gt;вставки" style="edgeLabel;html=1;align=center;verticalAlign=middle;resizable=0;points=[];fontFamily=Times New Roman;fontSize=18;labelBackgroundColor=none;" parent="1" vertex="1" connectable="0">
          <mxGeometry x="330" y="150" as="geometry">
            <mxPoint x="3" y="2" as="offset" />
          </mxGeometry>
        </mxCell>
        <mxCell id="hTDf5nkWKmeCR9dpcv33-16" value="Обновленные&lt;br&gt;массивы ключей&lt;br&gt;и указателей" style="edgeLabel;html=1;align=center;verticalAlign=middle;resizable=0;points=[];fontFamily=Times New Roman;fontSize=18;labelBackgroundColor=none;" parent="1" vertex="1" connectable="0">
          <mxGeometry x="560" y="220" as="geometry">
            <mxPoint y="3" as="offset" />
          </mxGeometry>
        </mxCell>
        <mxCell id="hTDf5nkWKmeCR9dpcv33-18" style="edgeStyle=orthogonalEdgeStyle;shape=connector;rounded=0;orthogonalLoop=1;jettySize=auto;html=1;exitX=1;exitY=0.5;exitDx=0;exitDy=0;exitPerimeter=0;labelBackgroundColor=default;strokeColor=default;fontFamily=Times New Roman;fontSize=18;fontColor=default;endArrow=classic;endSize=3;" parent="1" source="hTDf5nkWKmeCR9dpcv33-11" edge="1">
          <mxGeometry relative="1" as="geometry">
            <mxPoint x="800" y="320" as="targetPoint" />
            <mxPoint x="720" y="319.09000000000003" as="sourcePoint" />
          </mxGeometry>
        </mxCell>
        <mxCell id="hTDf5nkWKmeCR9dpcv33-21" value="&lt;font style=&quot;font-size: 18px;&quot;&gt;&lt;span style=&quot;font-size: 18px;&quot;&gt;Обновленный&lt;br&gt;индекс&lt;br style=&quot;font-size: 18px;&quot;&gt;&lt;/span&gt;&lt;/font&gt;" style="edgeLabel;html=1;align=center;verticalAlign=middle;resizable=0;points=[];labelBackgroundColor=none;fontFamily=Times New Roman;fontSize=18;" parent="1" vertex="1" connectable="0">
          <mxGeometry x="750" y="290" as="geometry" />
        </mxCell>
        <mxCell id="hTDf5nkWKmeCR9dpcv33-22" value="&lt;p style=&quot;line-height: 1; font-size: 18px;&quot;&gt;А1&lt;/p&gt;" style="shape=stencil(tVTRboMwDPyavFYh2T5gYtt/pKlXotIkcrJ1/fuaGKQiBq0mQEjgu3B3Bhyh69SYCEJJb84g9LtQKmKwkBLdEdww9iK5vHBZDbVJEWxm8MegM/sWmEkZwwku7pB7CecbQJc7Vn8I+UZrulPXNnhPIi74NGLueBIzztOz8pfFevvrqIqkf4YM2IdkVKjP52V3r9sIVxvlHcsO6VfPu57wOHG11YdbTbj6v6yuCZn7uXW9N/Z0xPDtD3+G+XJta0MbkEq+Fi+htOyP5Wai6QZvQgw0dmO7PE4PRn/OmPCJd0FnGqZWA8KDN8G7yYLr7IJiPXEoKG99BbgB);whiteSpace=wrap;html=1;fontFamily=Times New Roman;fontSize=18;spacingBottom=0;strokeColor=none;fontStyle=1" parent="1" vertex="1">
          <mxGeometry x="240" y="180" width="40" height="20" as="geometry" />
        </mxCell>
        <mxCell id="hTDf5nkWKmeCR9dpcv33-23" value="&lt;p style=&quot;line-height: 1; font-size: 18px;&quot;&gt;А2&lt;/p&gt;" style="shape=stencil(tVTRboMwDPyavFYh2T5gYtt/pKlXotIkcrJ1/fuaGKQiBq0mQEjgu3B3Bhyh69SYCEJJb84g9LtQKmKwkBLdEdww9iK5vHBZDbVJEWxm8MegM/sWmEkZwwku7pB7CecbQJc7Vn8I+UZrulPXNnhPIi74NGLueBIzztOz8pfFevvrqIqkf4YM2IdkVKjP52V3r9sIVxvlHcsO6VfPu57wOHG11YdbTbj6v6yuCZn7uXW9N/Z0xPDtD3+G+XJta0MbkEq+Fi+htOyP5Wai6QZvQgw0dmO7PE4PRn/OmPCJd0FnGqZWA8KDN8G7yYLr7IJiPXEoKG99BbgB);whiteSpace=wrap;html=1;fontFamily=Times New Roman;fontSize=18;spacingBottom=0;strokeColor=none;fontStyle=0" parent="1" vertex="1">
          <mxGeometry x="440" y="260" width="40" height="20" as="geometry" />
        </mxCell>
        <mxCell id="hTDf5nkWKmeCR9dpcv33-24" value="&lt;p style=&quot;line-height: 1; font-size: 18px;&quot;&gt;А3&lt;/p&gt;" style="shape=stencil(tVTRboMwDPyavFYh2T5gYtt/pKlXotIkcrJ1/fuaGKQiBq0mQEjgu3B3Bhyh69SYCEJJb84g9LtQKmKwkBLdEdww9iK5vHBZDbVJEWxm8MegM/sWmEkZwwku7pB7CecbQJc7Vn8I+UZrulPXNnhPIi74NGLueBIzztOz8pfFevvrqIqkf4YM2IdkVKjP52V3r9sIVxvlHcsO6VfPu57wOHG11YdbTbj6v6yuCZn7uXW9N/Z0xPDtD3+G+XJta0MbkEq+Fi+htOyP5Wai6QZvQgw0dmO7PE4PRn/OmPCJd0FnGqZWA8KDN8G7yYLr7IJiPXEoKG99BbgB);whiteSpace=wrap;html=1;fontFamily=Times New Roman;fontSize=18;spacingBottom=0;strokeColor=none;fontStyle=1" parent="1" vertex="1">
          <mxGeometry x="640" y="340" width="40" height="20" as="geometry" />
        </mxCell>
        <mxCell id="MPv2Jh6xAgTe_YapXhiy-1" style="edgeStyle=orthogonalEdgeStyle;rounded=0;orthogonalLoop=1;jettySize=auto;html=1;entryX=0;entryY=0.25;entryDx=0;entryDy=0;entryPerimeter=0;fontSize=18;" parent="1" edge="1">
          <mxGeometry relative="1" as="geometry">
            <mxPoint x="40" y="140" as="sourcePoint" />
            <Array as="points">
              <mxPoint x="60" y="140" />
            </Array>
            <mxPoint x="120" y="139.33" as="targetPoint" />
          </mxGeometry>
        </mxCell>
        <mxCell id="MPv2Jh6xAgTe_YapXhiy-2" style="edgeStyle=orthogonalEdgeStyle;rounded=0;orthogonalLoop=1;jettySize=auto;html=1;entryX=0;entryY=0.75;entryDx=0;entryDy=0;entryPerimeter=0;jumpStyle=arc;" parent="1" target="hTDf5nkWKmeCR9dpcv33-7" edge="1">
          <mxGeometry relative="1" as="geometry">
            <mxPoint x="40" y="260.67" as="sourcePoint" />
            <mxPoint x="120" y="260" as="targetPoint" />
            <Array as="points">
              <mxPoint x="60" y="261" />
            </Array>
          </mxGeometry>
        </mxCell>
        <mxCell id="MPv2Jh6xAgTe_YapXhiy-3" value="Указатель на&lt;br style=&quot;font-size: 18px;&quot;&gt;данные" style="edgeLabel;html=1;align=center;verticalAlign=middle;resizable=0;points=[];labelBackgroundColor=none;fontFamily=Times New Roman;fontSize=18;" parent="MPv2Jh6xAgTe_YapXhiy-2" vertex="1" connectable="0">
          <mxGeometry x="0.3311" y="-1" relative="1" as="geometry">
            <mxPoint x="-147" y="-21" as="offset" />
          </mxGeometry>
        </mxCell>
        <mxCell id="MPv2Jh6xAgTe_YapXhiy-4" value="Ключ" style="edgeLabel;html=1;align=center;verticalAlign=middle;resizable=0;points=[];fontFamily=Times New Roman;fontSize=18;labelBackgroundColor=none;" parent="1" vertex="1" connectable="0">
          <mxGeometry x="80" y="130" as="geometry" />
        </mxCell>
      </root>
    </mxGraphModel>
  </diagram>
  <diagram id="L25XxsNjGViIWcW9gJRE" name="Страница 7">
    <mxGraphModel dx="844" dy="477" grid="1" gridSize="10" guides="1" tooltips="1" connect="1" arrows="1" fold="1" page="1" pageScale="1" pageWidth="827" pageHeight="1169" math="0" shadow="0">
      <root>
        <mxCell id="0" />
        <mxCell id="1" parent="0" />
        <mxCell id="WeEi1AktqurLyF-ONLnq-1" value="Метод построения поисковых индексов" style="shape=stencil(tVTRboMwDPyavFYh2T5gYtt/pKlXotIkcrJ1/fuaGKQiBq0mQEjgu3B3Bhyh69SYCEJJb84g9LtQKmKwkBLdEdww9iK5vHBZDbVJEWxm8MegM/sWmEkZwwku7pB7CecbQJc7Vn8I+UZrulPXNnhPIi74NGLueBIzztOz8pfFevvrqIqkf4YM2IdkVKjP52V3r9sIVxvlHcsO6VfPu57wOHG11YdbTbj6v6yuCZn7uXW9N/Z0xPDtD3+G+XJta0MbkEq+Fi+htOyP5Wai6QZvQgw0dmO7PE4PRn/OmPCJd0FnGqZWA8KDN8G7yYLr7IJiPXEoKG99BbgB);whiteSpace=wrap;html=1;fontFamily=Times New Roman;fontSize=16;spacingBottom=4;points=[[0,0,0,0,0],[0,0.25,0,0,0],[0,0.5,0,0,0],[0,0.75,0,0,0],[0,1,0,0,0],[0.25,0,0,0,0],[0.25,1,0,0,0],[0.5,0,0,0,0],[0.5,1,0,0,0],[0.75,0,0,0,0],[0.75,1,0,0,0],[1,0,0,0,0],[1,0.25,0,0,0],[1,0.5,0,0,0],[1,0.75,0,0,0],[1,1,0,0,0]];" parent="1" vertex="1">
          <mxGeometry x="280" y="160" width="160" height="80" as="geometry" />
        </mxCell>
        <mxCell id="WeEi1AktqurLyF-ONLnq-2" value="" style="endArrow=classic;html=1;rounded=0;exitX=1;exitY=0.5;exitDx=0;exitDy=0;fontFamily=Times New Roman;fontSize=16;" parent="1" source="WeEi1AktqurLyF-ONLnq-1" edge="1">
          <mxGeometry width="50" height="50" relative="1" as="geometry">
            <mxPoint x="600" y="270" as="sourcePoint" />
            <mxPoint x="600" y="200" as="targetPoint" />
          </mxGeometry>
        </mxCell>
        <mxCell id="WeEi1AktqurLyF-ONLnq-3" value="&lt;font style=&quot;font-size: 16px;&quot;&gt;Индекс&lt;/font&gt;" style="edgeLabel;html=1;align=center;verticalAlign=middle;resizable=0;points=[];labelBackgroundColor=none;fontFamily=Times New Roman;fontSize=16;" parent="WeEi1AktqurLyF-ONLnq-2" vertex="1" connectable="0">
          <mxGeometry x="0.4225" y="1" relative="1" as="geometry">
            <mxPoint x="-34" y="-19" as="offset" />
          </mxGeometry>
        </mxCell>
        <mxCell id="WeEi1AktqurLyF-ONLnq-4" value="" style="endArrow=classic;html=1;rounded=0;entryX=0.25;entryY=0;entryDx=0;entryDy=0;entryPerimeter=0;fontFamily=Times New Roman;fontSize=16;" parent="1" target="WeEi1AktqurLyF-ONLnq-1" edge="1">
          <mxGeometry width="50" height="50" relative="1" as="geometry">
            <mxPoint x="320" y="80" as="sourcePoint" />
            <mxPoint x="410" y="90" as="targetPoint" />
          </mxGeometry>
        </mxCell>
        <mxCell id="WeEi1AktqurLyF-ONLnq-5" value="Правила&lt;br style=&quot;font-size: 16px;&quot;&gt;предварительной&lt;br style=&quot;font-size: 16px;&quot;&gt;обработки данных" style="edgeLabel;html=1;align=center;verticalAlign=middle;resizable=0;points=[];fontFamily=Times New Roman;fontSize=16;labelBackgroundColor=none;" parent="WeEi1AktqurLyF-ONLnq-4" vertex="1" connectable="0">
          <mxGeometry x="-0.2188" y="-2" relative="1" as="geometry">
            <mxPoint x="-71" y="-7" as="offset" />
          </mxGeometry>
        </mxCell>
        <mxCell id="WeEi1AktqurLyF-ONLnq-6" value="" style="endArrow=classic;html=1;rounded=0;entryX=0.75;entryY=0;entryDx=0;entryDy=0;entryPerimeter=0;fontFamily=Times New Roman;fontSize=16;" parent="1" target="WeEi1AktqurLyF-ONLnq-1" edge="1">
          <mxGeometry width="50" height="50" relative="1" as="geometry">
            <mxPoint x="400" y="80" as="sourcePoint" />
            <mxPoint x="413" y="140" as="targetPoint" />
          </mxGeometry>
        </mxCell>
        <mxCell id="WeEi1AktqurLyF-ONLnq-7" value="Модель&lt;br style=&quot;font-size: 16px;&quot;&gt;нейронной&lt;br style=&quot;font-size: 16px;&quot;&gt;сети" style="edgeLabel;html=1;align=center;verticalAlign=middle;resizable=0;points=[];fontFamily=Times New Roman;fontSize=16;labelBackgroundColor=none;" parent="WeEi1AktqurLyF-ONLnq-6" vertex="1" connectable="0">
          <mxGeometry x="-0.2188" y="-2" relative="1" as="geometry">
            <mxPoint x="46" y="-7" as="offset" />
          </mxGeometry>
        </mxCell>
        <mxCell id="WeEi1AktqurLyF-ONLnq-8" value="" style="endArrow=classic;html=1;rounded=0;entryX=0.5;entryY=1;entryDx=0;entryDy=0;entryPerimeter=0;fontFamily=Times New Roman;fontSize=16;" parent="1" target="WeEi1AktqurLyF-ONLnq-1" edge="1">
          <mxGeometry width="50" height="50" relative="1" as="geometry">
            <mxPoint x="360" y="320" as="sourcePoint" />
            <mxPoint x="359.5" y="250" as="targetPoint" />
          </mxGeometry>
        </mxCell>
        <mxCell id="WeEi1AktqurLyF-ONLnq-9" value="Алгоритм&lt;br style=&quot;font-size: 16px;&quot;&gt;обучения" style="edgeLabel;html=1;align=center;verticalAlign=middle;resizable=0;points=[];fontFamily=Times New Roman;fontSize=16;labelBackgroundColor=none;" parent="WeEi1AktqurLyF-ONLnq-8" vertex="1" connectable="0">
          <mxGeometry x="-0.2188" y="-2" relative="1" as="geometry">
            <mxPoint x="38" y="-8" as="offset" />
          </mxGeometry>
        </mxCell>
        <mxCell id="WeEi1AktqurLyF-ONLnq-10" style="edgeStyle=orthogonalEdgeStyle;rounded=0;orthogonalLoop=1;jettySize=auto;html=1;entryX=0;entryY=0.25;entryDx=0;entryDy=0;entryPerimeter=0;fontFamily=Times New Roman;fontSize=16;" parent="1" edge="1">
          <mxGeometry relative="1" as="geometry">
            <mxPoint x="120" y="180" as="sourcePoint" />
            <mxPoint x="280" y="180" as="targetPoint" />
            <Array as="points">
              <mxPoint x="160" y="180" />
            </Array>
          </mxGeometry>
        </mxCell>
        <mxCell id="WeEi1AktqurLyF-ONLnq-11" style="edgeStyle=orthogonalEdgeStyle;rounded=0;orthogonalLoop=1;jettySize=auto;html=1;entryX=0;entryY=0.75;entryDx=0;entryDy=0;entryPerimeter=0;fontFamily=Times New Roman;fontSize=16;" parent="1" edge="1">
          <mxGeometry relative="1" as="geometry">
            <mxPoint x="280" y="220" as="targetPoint" />
            <mxPoint x="120" y="220" as="sourcePoint" />
          </mxGeometry>
        </mxCell>
        <mxCell id="WeEi1AktqurLyF-ONLnq-12" value="Набор указателей&lt;br style=&quot;font-size: 16px;&quot;&gt;на данные" style="edgeLabel;html=1;align=center;verticalAlign=middle;resizable=0;points=[];labelBackgroundColor=none;fontFamily=Times New Roman;fontSize=16;" parent="WeEi1AktqurLyF-ONLnq-11" vertex="1" connectable="0">
          <mxGeometry x="0.3311" y="-1" relative="1" as="geometry">
            <mxPoint x="-26" y="19" as="offset" />
          </mxGeometry>
        </mxCell>
        <mxCell id="WeEi1AktqurLyF-ONLnq-13" value="Набор ключей" style="edgeLabel;html=1;align=center;verticalAlign=middle;resizable=0;points=[];fontFamily=Times New Roman;fontSize=16;labelBackgroundColor=none;" parent="1" vertex="1" connectable="0">
          <mxGeometry x="200" y="163" as="geometry" />
        </mxCell>
        <mxCell id="WeEi1AktqurLyF-ONLnq-14" value="&lt;p style=&quot;line-height: 1; font-size: 16px;&quot;&gt;А0&lt;/p&gt;" style="shape=stencil(tVTRboMwDPyavFYh2T5gYtt/pKlXotIkcrJ1/fuaGKQiBq0mQEjgu3B3Bhyh69SYCEJJb84g9LtQKmKwkBLdEdww9iK5vHBZDbVJEWxm8MegM/sWmEkZwwku7pB7CecbQJc7Vn8I+UZrulPXNnhPIi74NGLueBIzztOz8pfFevvrqIqkf4YM2IdkVKjP52V3r9sIVxvlHcsO6VfPu57wOHG11YdbTbj6v6yuCZn7uXW9N/Z0xPDtD3+G+XJta0MbkEq+Fi+htOyP5Wai6QZvQgw0dmO7PE4PRn/OmPCJd0FnGqZWA8KDN8G7yYLr7IJiPXEoKG99BbgB);whiteSpace=wrap;html=1;fontFamily=Times New Roman;fontSize=16;spacingBottom=0;strokeColor=none;" parent="1" vertex="1">
          <mxGeometry x="400" y="220" width="40" height="20" as="geometry" />
        </mxCell>
      </root>
    </mxGraphModel>
  </diagram>
</mxfile>
